<?xml version="1.0" encoding="utf-8"?>
<!-- Generator: Adobe Illustrator 19.0.0, SVG Export Plug-In . SVG Version: 6.00 Build 0)  -->
<svg version="1.1" id="Layer_1" xmlns="http://www.w3.org/2000/svg" xmlns:xlink="http://www.w3.org/1999/xlink" x="0px" y="0px"
	 viewBox="0 0 161 161" style="enable-background:new 0 0 161 161;" xml:space="preserve">
<style type="text/css">
	.st0{fill:#21428C;}
</style>
<g id="XMLID_1884_">
	<g id="XMLID_1887_">
		<path id="XMLID_55_" class="st0" d="M80.6,113.9c-0.8,0-1.7-0.3-2.4-0.9l-6.4-5.9c-0.3-0.3-0.9-0.5-1.3-0.3l-8.4,2.5
			c-1.9,0.4-3.7-0.5-4.2-2.1l-3.2-8c-0.3-0.5-0.7-0.9-1.3-1.2l-8.4-1.3c-0.8-0.1-1.6-0.5-2.2-1.3c-0.6-0.7-0.8-1.6-0.7-2.4l0.5-8.6
			c0-0.4-0.3-1-0.7-1.3l-7-4.9c-1.4-1-1.9-3.2-1-4.6l4.2-7.5c0.2-0.5,0.2-1,0-1.5l-4.2-7.5c-1-1.6-0.5-3.6,1-4.6l7.1-4.9
			c0.4-0.3,0.7-0.9,0.7-1.4L42,37.7c-0.1-0.8,0.2-1.7,0.7-2.4c0.6-0.7,1.4-1.2,2.2-1.3l8.6-1.4c0.5-0.1,1-0.4,1.1-0.8l3.3-8.1
			c0.3-0.8,0.9-1.5,1.7-1.9c0.8-0.4,1.7-0.5,2.6-0.2l8.3,2.4c0.6,0.2,1.1-0.1,1.4-0.4l6.5-5.8c1.2-1.2,3.2-1.2,4.6,0l6.4,5.9
			c0.3,0.3,0.9,0.5,1.3,0.3l8.4-2.5c1.9-0.4,3.7,0.5,4.2,2.1l3.1,8.2c0.1,0.4,0.6,0.8,1.1,0.9l8.6,1.4c0.8,0.1,1.6,0.5,2.2,1.3
			c0.6,0.7,0.8,1.6,0.7,2.4l-0.5,8.6c0,0.4,0.3,1,0.7,1.3l7,4.9c1.5,1,1.9,3.2,1,4.6l-4.2,7.5c-0.2,0.5-0.2,1,0,1.5l4.2,7.5
			c0.4,0.7,0.6,1.6,0.4,2.5c-0.2,0.9-0.7,1.7-1.5,2.1l-7.1,4.9c-0.4,0.3-0.7,0.9-0.7,1.4l0.5,8.7c0.2,1.7-1.2,3.5-2.9,3.7l-8.6,1.4
			c-0.5,0.1-1,0.4-1.1,0.8l-3.3,8.1c-0.6,1.7-2.5,2.7-4.2,2.1l-8.3-2.4c-0.6-0.2-1.1,0.1-1.4,0.4l-6.4,5.8
			C82.2,113.6,81.4,113.9,80.6,113.9z M70.8,104.8c0.9,0,1.8,0.3,2.4,0.9l6.4,5.8c0.5,0.5,1.4,0.5,1.9,0l6.5-5.9
			c1.1-0.9,2.2-1.1,3.3-0.8l8.3,2.4c0.7,0.2,1.5-0.2,1.8-0.9l3.3-8.1c0.3-1,1.4-1.9,2.7-2.1l8.6-1.4c0.7-0.1,1.3-0.8,1.2-1.5
			l-0.6-8.8c0-1.2,0.5-2.3,1.5-3l7.2-5c0.3-0.2,0.5-0.5,0.6-0.9c0.1-0.4,0-0.8-0.2-1.1l-4.3-7.5c-0.6-1.1-0.6-2.3,0-3.4l4.3-7.6
			c0.4-0.7,0.1-1.6-0.4-2l-7.1-4.9c-1-0.8-1.5-1.9-1.5-3l0.5-8.7c0-0.4-0.1-0.7-0.3-1c-0.2-0.3-0.5-0.5-0.9-0.5l-8.6-1.4
			c-1.3-0.2-2.3-1.1-2.7-2.2l-3.1-8.2c-0.3-0.8-1.1-1-1.9-0.9L91.3,26c-1.1,0.4-2.5,0-3.3-0.8l-6.4-5.8c-0.5-0.5-1.4-0.5-1.9,0
			l-6.6,5.9c-1.1,0.9-2.2,1.1-3.3,0.8l-8.3-2.4c-0.7-0.2-1.5,0.2-1.8,0.9l-3.3,8.1c-0.3,1-1.4,1.9-2.7,2.1L45.2,36
			c-0.4,0-0.7,0.2-0.9,0.5c-0.2,0.3-0.3,0.6-0.3,1l0.6,8.7c0,1.2-0.5,2.3-1.5,3l-7.2,5c-0.6,0.4-0.8,1.3-0.4,1.9l4.3,7.5
			c0.6,1.1,0.6,2.3,0,3.4l-4.3,7.6c-0.4,0.7-0.1,1.6,0.4,2l7.1,4.9c1,0.8,1.5,1.9,1.5,3L44,93.1c0,0.4,0.1,0.7,0.3,1
			c0.2,0.3,0.5,0.5,0.9,0.5l8.9,1.5c1.1,0.6,1.9,1.3,2.4,2.2l0,0.1l3.3,8.1c0.3,0.8,1.1,1.1,1.9,0.9l8.3-2.4
			C70.1,104.8,70.5,104.8,70.8,104.8z M67.4,88.2c-0.8,0-1.6-0.3-2.3-0.8c-1.3-1-1.8-2.6-1.4-4.1l3.1-12.6l-10-8.5
			c-1.2-1-1.7-2.6-1.2-4.1c0.5-1.5,1.8-2.6,3.5-2.7l13-0.9l5-12.1c0.6-1.5,2-2.4,3.6-2.4c1.6,0,3,0.9,3.6,2.4l5,12.1l13,0.9
			c1.6,0.1,2.9,1.1,3.4,2.6c0.5,1.5,0.1,3.2-1.1,4.2l-10,8.5l3.1,12.6c0.4,1.5-0.1,3.1-1.4,4c-1.3,1-3,1-4.3,0.2l-11.2-6.9
			l-11.1,6.9C68.8,88,68.1,88.2,67.4,88.2z M80.6,42.1c-0.6,0-1.4,0.3-1.7,1.1l-5.4,13.3l-14.3,1c-0.9,0-1.5,0.7-1.7,1.3
			c-0.2,0.8,0,1.5,0.6,2l11,9.3l-3.4,13.8c-0.2,0.9,0.2,1.6,0.7,2c0.5,0.4,1.3,0.6,2.1,0.1l12.1-7.6l12.3,7.6
			c0.8,0.5,1.6,0.3,2.1-0.1c0.5-0.4,0.9-1.1,0.7-1.9L92.1,70l11-9.3c0.7-0.6,0.7-1.5,0.5-2.1c-0.2-0.7-0.8-1.2-1.6-1.2l-14.3-1
			l-5.4-13.3C82,42.3,81.2,42.1,80.6,42.1z"/>
	</g>
	<g id="XMLID_1886_">
		<path id="XMLID_50_" class="st0" d="M94.8,144c-0.1,0-0.3,0-0.4,0c-0.8-0.1-1.5-0.7-1.7-1.4l-8.4-26l0.4-0.4
			c0.1-0.1,0.3-0.2,0.4-0.3c0,0,0.1-0.1,0.1-0.1l5.6-5.2l7.1,2.2c2.2,0.9,5.1,0.1,7.1-1.7l1.1-1l8.3,25.5c0.3,0.7,0.2,1.6-0.3,2.2
			c-0.5,0.6-1.4,0.9-2.2,0.6l-9.3-2.7l-0.1,0l-6.1,7.7C96.1,143.7,95.5,144,94.8,144z M86.6,117.2l8,24.7c0,0,0.1,0.1,0.1,0.1
			c0.1,0,0.2,0,0.2,0l6-7.6c0.5-0.7,1.5-1,2.3-0.7l9.3,2.7c0.1,0,0.2,0,0.2,0c0,0,0-0.1,0-0.1l-7.4-22.8c-1.6,1.1-3.4,1.7-5.2,1.7
			c-1,0-1.9-0.2-2.7-0.5l-5.9-1.9L86.6,117.2C86.6,117.1,86.6,117.2,86.6,117.2z"/>
	</g>
	<g id="XMLID_1885_">
		<path id="XMLID_47_" class="st0" d="M66.4,143.9c-0.7,0-1.3-0.3-1.7-0.8l-6-7.7l-0.1-0.1l-9.3,2.7c-0.9,0.3-1.8,0-2.3-0.7
			c-0.5-0.6-0.5-1.4-0.2-2.2l8.3-25.5l1.2,1.2c1.4,1.4,3.2,2.2,5,2.2c0.7,0,1.2-0.1,2-0.4l7.1-2.2l5.5,5c0.1,0,0.1,0.1,0.2,0.1
			c0.2,0.1,0.3,0.2,0.4,0.3l0.4,0.4l-8.4,26c-0.2,0.8-0.8,1.3-1.6,1.5C66.7,143.9,66.5,143.9,66.4,143.9z M58.6,133.4
			c0.7,0,1.3,0.3,1.7,0.9l6,7.6c0,0,0.1,0.1,0.2,0c0.1,0,0.1-0.1,0.1-0.1l8-24.8c0,0-0.1-0.1-0.1-0.1l-4.6-4.2l-6,1.9
			c-1,0.3-1.7,0.5-2.6,0.5c-1.8,0-3.7-0.6-5.2-1.7l-7.4,22.8c0,0,0,0.1,0,0.1c0,0,0.1,0,0.1,0l9.3-2.7
			C58.2,133.4,58.4,133.4,58.6,133.4z"/>
	</g>
</g>
</svg>
