<?xml version="1.0" encoding="utf-8"?>
<!-- Generator: Adobe Illustrator 19.0.0, SVG Export Plug-In . SVG Version: 6.00 Build 0)  -->
<svg version="1.1" id="Layer_1" xmlns="http://www.w3.org/2000/svg" xmlns:xlink="http://www.w3.org/1999/xlink" x="0px" y="0px"
	 viewBox="0 0 161 161" style="enable-background:new 0 0 161 161;" xml:space="preserve">
<style type="text/css">
	.st0{fill:#21428C;}
</style>
<g id="XMLID_634_">
	<g id="XMLID_666_">
		<path id="XMLID_667_" class="st0" d="M80.2,104.8c-13.8,0-25-11.2-25-25c0-13.8,11.2-25,25-25s25,11.2,25,25
			C105.2,93.6,94,104.8,80.2,104.8z M80.2,56.8c-12.7,0-23,10.3-23,23s10.3,23,23,23s23-10.3,23-23S92.9,56.8,80.2,56.8z"/>
	</g>
	<g id="XMLID_635_">
		<path id="XMLID_636_" class="st0" d="M89.4,131.7H71.6c-1.8,0-3.3-1.5-3.3-3.3v-9.1c-2-0.6-4.2-1.5-6.3-2.6l-6.5,6.5
			c-1.3,1.3-3.5,1.3-4.9,0l-12.7-12.7c-0.6-0.6-0.9-1.5-0.9-2.4c0-0.9,0.3-1.8,0.9-2.4l6.5-6.6c-1.1-2.1-2-4.3-2.6-6.3h-9.1
			c-1.8,0-3.3-1.5-3.3-3.3V71.5c0-1.8,1.5-3.3,3.3-3.3h9.1c0.6-2,1.5-4.2,2.6-6.3l-6.5-6.5c-0.6-0.6-0.9-1.5-0.9-2.4
			c0-0.9,0.3-1.8,0.9-2.4L50.3,38c1.3-1.3,3.5-1.3,4.9,0l6.5,6.4c2.1-1.1,4.3-2,6.3-2.6v-9.1c0-1.8,1.5-3.3,3.3-3.3h18
			c0.9,0,1.8,0.4,2.4,1c0.6,0.7,0.9,1.6,0.8,2.5l0,9c2,0.6,4.2,1.5,6.3,2.6l6.5-6.5c1.3-1.3,3.5-1.3,4.9,0l12.9,12.6
			c1.3,1.3,1.3,3.5,0,4.8l-6.5,6.5c1.1,2.1,2,4.3,2.6,6.3h9.1c1.8,0,3.3,1.5,3.3,3.3v18c0,1.8-1.5,3.3-3.3,3.3h-9.1
			c-0.6,2-1.5,4.2-2.6,6.3l6.5,6.5c1.3,1.3,1.3,3.5,0,4.7l-12.7,12.7c-1.3,1.3-3.5,1.3-4.9,0l-6.5-6.5c-2.1,1.1-4.3,2-6.3,2.6v9.1
			C92.8,130.2,91.3,131.7,89.4,131.7z M61.5,114.2l0.7,0.3c2.5,1.3,5,2.3,7.3,3l0.7,0.2v10.6c0,0.8,0.7,1.3,1.3,1.3h17.9
			c0.8,0,1.3-0.7,1.3-1.3v-10.6l0.7-0.2c2.3-0.7,4.9-1.7,7.3-3l0.7-0.3l7.5,7.5c0.6,0.6,1.5,0.6,2,0l12.7-12.7
			c0.2-0.2,0.4-0.6,0.4-1c0-0.4-0.1-0.7-0.4-1l-7.5-7.5l0.3-0.7c1.3-2.5,2.3-5,3-7.3l0.2-0.7h10.6c0.8,0,1.3-0.7,1.3-1.3v-18
			c0-0.8-0.7-1.3-1.3-1.3h-10.6l-0.2-0.7c-0.7-2.3-1.7-4.9-3-7.3l-0.3-0.7l7.5-7.5c0.5-0.5,0.5-1.4,0-1.9l-12.9-12.6
			c-0.6-0.6-1.5-0.6-2,0L99.2,47l-0.7-0.3c-2.5-1.3-5-2.3-7.3-3l-0.7-0.2V32.8c0-0.5-0.1-0.8-0.3-1.1c-0.2-0.2-0.6-0.4-0.9-0.4h-18
			c-0.8,0-1.3,0.7-1.3,1.3v10.6l-0.7,0.2c-2.3,0.7-4.9,1.7-7.3,3l-0.6,0.3l-7.5-7.4c-0.6-0.6-1.5-0.6-2,0L39.2,52
			c-0.2,0.2-0.4,0.6-0.4,1c0,0.4,0.1,0.7,0.4,1l7.5,7.5l-0.3,0.7c-1.3,2.5-2.3,5-3,7.3l-0.2,0.7H32.6c-0.8,0-1.3,0.7-1.3,1.3v17.9
			c0,0.8,0.7,1.3,1.3,1.3h10.6l0.2,0.7c0.7,2.3,1.7,4.9,3,7.3l0.3,0.6l-7.5,7.7c-0.2,0.2-0.4,0.6-0.4,1c0,0.4,0.1,0.7,0.4,1
			l12.7,12.7c0.6,0.6,1.5,0.6,2,0L61.5,114.2z"/>
	</g>
</g>
</svg>
