<?xml version="1.0" encoding="utf-8"?>
<!-- Generator: Adobe Illustrator 19.0.0, SVG Export Plug-In . SVG Version: 6.00 Build 0)  -->
<svg version="1.1" id="Layer_1" xmlns="http://www.w3.org/2000/svg" xmlns:xlink="http://www.w3.org/1999/xlink" x="0px" y="0px"
	 viewBox="0 0 161 161" style="enable-background:new 0 0 161 161;" xml:space="preserve">
<style type="text/css">
	.st0{fill:#21428C;}
</style>
<g id="XMLID_818_">
	<g id="XMLID_831_">
		<path id="XMLID_832_" class="st0" d="M80.5,130.5c-27.6,0-50-22.4-50-50c0-27.6,22.4-50,50-50s50,22.4,50,50
			C130.5,108.1,108.1,130.5,80.5,130.5z M80.5,32.5c-26.5,0-48,21.5-48,48s21.5,48,48,48s48-21.5,48-48S107,32.5,80.5,32.5z"/>
	</g>
	<g id="XMLID_829_">
		<rect id="XMLID_830_" x="79.5" y="37.5" class="st0" width="2" height="10"/>
	</g>
	<g id="XMLID_827_">
		<rect id="XMLID_828_" x="79.5" y="56.5" class="st0" width="2" height="26"/>
	</g>
	<g id="XMLID_825_">
		
			<rect id="XMLID_826_" x="77.3" y="88.5" transform="matrix(0.7071 0.7071 -0.7071 0.7071 88.9144 -35.6578)" class="st0" width="20.3" height="2"/>
	</g>
	<g id="XMLID_823_">
		<rect id="XMLID_824_" x="79.5" y="113.5" class="st0" width="2" height="10"/>
	</g>
	<g id="XMLID_821_">
		<rect id="XMLID_822_" x="37.5" y="79.5" class="st0" width="10" height="2"/>
	</g>
	<g id="XMLID_819_">
		<rect id="XMLID_820_" x="113.5" y="79.5" class="st0" width="10" height="2"/>
	</g>
</g>
</svg>
