<?xml version="1.0" encoding="utf-8"?>
<!-- Generator: Adobe Illustrator 19.0.0, SVG Export Plug-In . SVG Version: 6.00 Build 0)  -->
<svg version="1.1" id="Layer_1" xmlns="http://www.w3.org/2000/svg" xmlns:xlink="http://www.w3.org/1999/xlink" x="0px" y="0px"
	 viewBox="0 0 161 161" style="enable-background:new 0 0 161 161;" xml:space="preserve">
<style type="text/css">
	.st0{fill:#21428C;}
</style>
<g id="XMLID_886_">
	<g id="XMLID_905_">
		<path id="XMLID_906_" class="st0" d="M114.7,131.5H46.3c-5.9,0-10.7-4.8-10.7-10.7V40.2c0-5.9,4.8-10.7,10.7-10.7h68.3
			c5.9,0,10.7,4.8,10.7,10.7v80.5C125.4,126.7,120.6,131.5,114.7,131.5z M46.3,31.5c-4.8,0-8.7,3.9-8.7,8.7v80.5
			c0,4.8,3.9,8.7,8.7,8.7h68.3c4.8,0,8.7-3.9,8.7-8.7V40.2c0-4.8-3.9-8.7-8.7-8.7H46.3z"/>
	</g>
	<g id="XMLID_903_">
		<rect id="XMLID_904_" x="72.5" y="53.5" class="st0" width="39" height="2"/>
	</g>
	<g id="XMLID_901_">
		<rect id="XMLID_902_" x="72.5" y="78.5" class="st0" width="39" height="2"/>
	</g>
	<g id="XMLID_899_">
		<rect id="XMLID_900_" x="72.5" y="103.5" class="st0" width="39" height="2"/>
	</g>
	<g id="XMLID_897_">
		<polygon id="XMLID_898_" class="st0" points="56.3,60.6 48.7,53.1 50.2,51.7 55.9,57.4 63,45.9 64.7,46.9 		"/>
	</g>
	<g id="XMLID_892_">
		<g id="XMLID_895_">
			
				<rect id="XMLID_896_" x="55.1" y="69.2" transform="matrix(0.7432 0.669 -0.669 0.7432 67.1828 -17.2504)" class="st0" width="2" height="19.4"/>
		</g>
		<g id="XMLID_893_">
			
				<rect id="XMLID_894_" x="46.4" y="77.9" transform="matrix(0.669 0.7433 -0.7433 0.669 77.2083 -15.5537)" class="st0" width="19.4" height="2"/>
		</g>
	</g>
	<g id="XMLID_887_">
		<g id="XMLID_890_">
			
				<rect id="XMLID_891_" x="55.1" y="94.5" transform="matrix(0.7432 0.669 -0.669 0.7432 84.1013 -10.7575)" class="st0" width="2" height="19.4"/>
		</g>
		<g id="XMLID_888_">
			
				<rect id="XMLID_889_" x="46.4" y="103.2" transform="matrix(0.6689 0.7433 -0.7433 0.6689 96.009 -7.1809)" class="st0" width="19.4" height="2"/>
		</g>
	</g>
</g>
</svg>
