<?xml version="1.0" encoding="utf-8"?>
<!-- Generator: Adobe Illustrator 19.0.0, SVG Export Plug-In . SVG Version: 6.00 Build 0)  -->
<svg version="1.1" id="Layer_1" xmlns="http://www.w3.org/2000/svg" xmlns:xlink="http://www.w3.org/1999/xlink" x="0px" y="0px"
	 viewBox="0 0 161 161" style="enable-background:new 0 0 161 161;" xml:space="preserve">
<style type="text/css">
	.st0{fill:#21428C;}
</style>
<g id="XMLID_936_">
	<g id="XMLID_943_">
		<path id="XMLID_944_" class="st0" d="M80.4,130.5c-27.6,0-50-22.4-50-50c0-27.6,22.4-50,50-50s50,22.4,50,50
			C130.4,108.1,107.9,130.5,80.4,130.5z M80.4,32.5c-26.5,0-48,21.5-48,48s21.5,48,48,48s48-21.5,48-48S106.8,32.5,80.4,32.5z"/>
	</g>
	<g id="XMLID_939_">
		<path id="XMLID_940_" class="st0" d="M70.5,110.5h-2v-26h-8v-2h8v-30l0.8,0c0.2,0,16.1,0.1,22,0c1.9,0,6.7,0.3,10.4,4
			c2.9,2.8,4.3,6.8,4.3,12c0,11.9-7.9,16-14.7,16H70.5V110.5z M70.5,82.5h20.9c2.1,0,12.7-0.5,12.7-14c0-4.6-1.3-8.2-3.7-10.6
			c-3.3-3.3-7.6-3.4-8.9-3.4c-5.1,0.1-17.9,0.1-20.9,0V82.5z"/>
	</g>
	<g id="XMLID_937_">
		<rect id="XMLID_938_" x="60.5" y="90.5" class="st0" width="34" height="2"/>
	</g>
</g>
</svg>
