<?xml version="1.0" encoding="utf-8"?>
<!-- Generator: Adobe Illustrator 19.0.0, SVG Export Plug-In . SVG Version: 6.00 Build 0)  -->
<svg version="1.1" id="Layer_1" xmlns="http://www.w3.org/2000/svg" xmlns:xlink="http://www.w3.org/1999/xlink" x="0px" y="0px"
	 viewBox="0 0 161 161" style="enable-background:new 0 0 161 161;" xml:space="preserve">
<style type="text/css">
	.st0{fill:#21428C;}
</style>
<g id="XMLID_722_">
	<g id="XMLID_997_">
		<rect id="XMLID_998_" x="62.5" y="98.5" class="st0" width="37" height="2"/>
	</g>
	<g id="XMLID_995_">
		<rect id="XMLID_996_" x="62.5" y="109.5" class="st0" width="37" height="2"/>
	</g>
	<g id="XMLID_989_">
		<path id="XMLID_990_" class="st0" d="M119.2,107.5h-4.7v-20h-67v20h-5.4c-5.7,0-10.6-5-10.6-10.8V71.5c0-5.6,4.6-10,10.6-10h77.1
			c5.9,0,10.3,4.3,10.3,10v25.1C129.5,102.5,124.8,107.5,119.2,107.5z M116.5,105.5h2.7c4.5,0,8.3-4,8.3-8.8V71.5c0-4.6-3.6-8-8.3-8
			H42.1c-4.8,0-8.6,3.5-8.6,8v25.1c0,4.7,4,8.8,8.6,8.8h3.4v-20h71V105.5z M113.1,78.1c-2.5,0-4.5-2-4.5-4.5s2-4.5,4.5-4.5
			s4.5,2,4.5,4.5S115.6,78.1,113.1,78.1z M113.1,71.1c-1.4,0-2.5,1.1-2.5,2.5s1.1,2.5,2.5,2.5s2.5-1.1,2.5-2.5
			S114.5,71.1,113.1,71.1z"/>
	</g>
	<g id="XMLID_987_">
		<path id="XMLID_988_" class="st0" d="M102.2,127.5H60.1c-5.7,0-10.6-5-10.6-10.8V86.5h2v30.2c0,4.7,4,8.8,8.6,8.8h42.1
			c4.5,0,8.3-4,8.3-8.8V86.5h2v30.2C112.5,122.5,107.8,127.5,102.2,127.5z"/>
	</g>
	<g id="XMLID_985_">
		<path id="XMLID_986_" class="st0" d="M112.5,62.5h-2v-19c0-4.6-3.6-8-8.3-8H60.1c-4.8,0-8.6,3.5-8.6,8v19h-2v-19
			c0-5.6,4.6-10,10.6-10h42.1c5.9,0,10.3,4.3,10.3,10V62.5z"/>
	</g>
</g>
</svg>
