<?xml version="1.0" encoding="utf-8"?>
<!-- Generator: Adobe Illustrator 19.0.0, SVG Export Plug-In . SVG Version: 6.00 Build 0)  -->
<svg version="1.1" id="Layer_1" xmlns="http://www.w3.org/2000/svg" xmlns:xlink="http://www.w3.org/1999/xlink" x="0px" y="0px"
	 viewBox="0 0 281.6 32.9" style="enable-background:new 0 0 281.6 32.9;" xml:space="preserve">
<style type="text/css">
	.st0{fill:#FEFEFE;}
	.st1{fill-rule:evenodd;clip-rule:evenodd;fill:#FEFEFE;}
	.st2{fill-rule:evenodd;clip-rule:evenodd;fill:#0A8CCF;}
	.st3{fill-rule:evenodd;clip-rule:evenodd;fill:#B70969;}
	.st4{fill-rule:evenodd;clip-rule:evenodd;fill:#F9E74C;}
	.st5{fill-rule:evenodd;clip-rule:evenodd;}
</style>
<g id="XMLID_803_">
	<g id="XMLID_837_">
		<path id="XMLID_838_" class="st0" d="M1.8,27.2V1.9h3.9v10.7h0.8c0.9,0,1.6-0.3,2.1-0.8c0.6-0.5,1-1.4,1.3-2.7
			c0-0.2,0.2-0.7,0.3-1.4c0.2-0.7,0.3-1.4,0.5-2.2C10.9,4.7,11,4,11.2,3.3c0.1-0.7,0.2-1.1,0.3-1.4h3.7c-0.3,1.3-0.5,2.5-0.8,3.8
			c-0.3,1.2-0.5,2.5-0.8,3.8c-0.3,1.2-0.7,2.2-1.2,3c-0.5,0.8-1.2,1.3-1.9,1.6v0.1c0.9,0.3,1.6,0.9,2.1,1.6c0.5,0.8,0.9,1.7,1.2,3
			c0.3,1.4,0.6,2.8,0.9,4.2c0.3,1.4,0.6,2.8,0.9,4.2h-3.9c-0.2-1.2-0.5-2.5-0.7-3.7c-0.2-1.2-0.5-2.5-0.8-3.7
			c-0.3-1.4-0.7-2.3-1.2-2.8c-0.5-0.5-1.3-0.8-2.1-0.8H5.7v11H1.8L1.8,27.2z M26.9,27.2l-1-5.3h-4.6c-0.2,0.9-0.3,1.8-0.5,2.6
			c-0.2,0.9-0.3,1.8-0.5,2.6h-4c0.8-4.2,1.7-8.5,2.5-12.6c0.8-4.2,1.7-8.4,2.5-12.6h4.4l5.1,25.3H26.9L26.9,27.2z M23.4,7.7
			c-0.2,1.7-0.5,3.5-0.8,5.2c-0.3,1.7-0.6,3.5-0.9,5.3h3.5L23.6,7.7H23.4L23.4,7.7z M38.7,1.9c2.3,0,4,0.6,5.1,1.8
			c1.1,1.2,1.6,3.2,1.6,5.8c0,1.2-0.1,2.3-0.3,3.2c-0.2,1-0.6,1.8-1.1,2.5c-0.5,0.7-1.2,1.2-2.1,1.6c-0.9,0.4-1.9,0.6-3.3,0.6H37
			v9.7h-3.9V1.9H38.7L38.7,1.9z M37,5.6v8.2h1.4c1.2,0,2.1-0.3,2.5-1c0.5-0.7,0.7-1.7,0.7-3.1c0-1.2-0.2-2.2-0.7-2.9
			c-0.4-0.7-1.3-1.1-2.5-1.1H37L37,5.6z M54.3,5.6v21.6h-3.9V5.6h-4.1V1.9h12.1v3.7H54.3L54.3,5.6z M66,1.9c2.3,0,4,0.6,5.1,1.8
			c1.1,1.2,1.6,3.2,1.6,5.8c0,1.2-0.1,2.3-0.3,3.2c-0.2,1-0.6,1.8-1.1,2.5c-0.5,0.7-1.2,1.2-2.1,1.6c-0.9,0.4-1.9,0.6-3.3,0.6h-1.6
			v9.7h-3.9V1.9H66L66,1.9z M64.3,5.6v8.2h1.4c1.2,0,2.1-0.3,2.5-1C68.7,12,69,11,69,9.6c0-1.2-0.2-2.2-0.7-2.9
			c-0.4-0.7-1.3-1.1-2.5-1.1H64.3L64.3,5.6z M84.3,11.3L79,27.2h-3.8V1.9h3.8v16h0.1l5.3-16h3.8v25.3h-3.9V11.3H84.3L84.3,11.3z
			 M93.6,27.2V32h-3.3v-8.1l1.5-0.3c0.7-0.7,1.1-1.6,1.4-2.5c0.2-1,0.4-2.2,0.4-3.8l0.4-15.4h11.3v21.7h1.6V32h-3.3v-4.8H93.6
			L93.6,27.2z M97.1,17.2c0,1.5-0.1,2.7-0.3,3.8c-0.1,1.1-0.4,1.9-0.8,2.6h5.4V5.6h-4L97.1,17.2L97.1,17.2z M118,27.2v-11h-0.9
			c-1,0-1.7,0.3-2.2,0.8c-0.5,0.5-0.9,1.5-1.1,2.8c-0.2,1.2-0.5,2.5-0.7,3.7c-0.2,1.2-0.5,2.5-0.8,3.7h-3.9l1.7-8.4
			c0.3-1.2,0.7-2.2,1.2-3c0.5-0.8,1.2-1.3,2.1-1.6v-0.1c-0.7-0.3-1.3-0.8-1.9-1.6c-0.5-0.8-0.9-1.8-1.2-3c-0.3-1.3-0.5-2.5-0.8-3.8
			c-0.3-1.2-0.5-2.5-0.8-3.8h3.6l1.6,7.2c0.1,0.7,0.3,1.2,0.6,1.7c0.2,0.4,0.5,0.8,0.8,1.1c0.3,0.3,0.6,0.5,0.9,0.6
			c0.3,0.1,0.6,0.2,1,0.2h0.8V1.9h3.9v10.7h0.7c0.8,0,1.5-0.2,2.1-0.7c0.6-0.5,1-1.4,1.3-2.8c0.1-0.2,0.2-0.7,0.3-1.4
			c0.2-0.7,0.3-1.4,0.5-2.2c0.2-0.8,0.3-1.5,0.5-2.2c0.1-0.7,0.2-1.1,0.3-1.4h3.6c-0.2,1.3-0.5,2.5-0.8,3.8
			c-0.3,1.2-0.5,2.5-0.8,3.8c-0.3,1.2-0.7,2.2-1.2,3c-0.5,0.8-1.2,1.3-1.9,1.6l0,0c0.9,0.3,1.6,0.9,2.2,1.7c0.5,0.8,0.9,1.8,1.2,3
			l1.7,8.4h-3.9l-1.5-7.4c-0.3-1.4-0.7-2.3-1.2-2.8c-0.6-0.5-1.3-0.8-2.1-0.8H122v11H118L118,27.2z"/>
	</g>
	<g id="XMLID_805_">
		<g id="XMLID_820_">
			<polygon id="XMLID_836_" class="st0" points="158.2,21.4 156.4,16.7 154.8,12.3 154.6,12.3 154.6,26.9 150.7,26.9 150.7,1.7 
				154.5,1.7 157.3,8.9 159.2,14.3 159.4,14.3 161.5,8.7 164.2,1.7 168,1.7 168,26.9 164,26.9 164,12.4 163.9,12.4 162.3,16.9 
				160.5,21.4 158.2,21.4 			"/>
			<path id="XMLID_833_" class="st0" d="M179.6,1h-4.4c-0.8,5-1.7,8.8-2.5,13c-0.8,4.2-1.7,9-2.5,13h4c0.1-1,0.3-1.6,0.5-2.5
				c0.2-0.9,0.3-2.5,0.5-2.5h4.6l1,5h4L179.6,1z M175.7,18c0.3-2,0.6-3.8,0.9-5.5c0.3-1.7,0.5-3.5,0.8-5.5h0.2l1.6,11H175.7z"/>
			<path id="XMLID_832_" class="st0" d="M192.9,1.4c1,0,1.9,0.1,2.7,0.4c0.8,0.3,1.4,0.7,1.9,1.2c0.5,0.5,0.9,1.1,1.1,1.8
				c0.2,0.7,0.3,1.5,0.3,2.3l-3.8,1c0-0.9-0.2-1.7-0.5-2.3c-0.4-0.6-0.9-0.9-1.7-0.9c-0.5,0-0.8,0.1-1.1,0.3
				c-0.3,0.2-0.5,0.4-0.7,0.7c-0.2,0.3-0.3,0.6-0.3,1c-0.1,0.4-0.1,0.7-0.1,1V21c0,0.2,0,0.5,0.1,0.8c0,0.3,0.2,0.6,0.3,0.8
				c0.2,0.3,0.4,0.5,0.7,0.6c0.3,0.2,0.6,0.3,1.1,0.3c1.4,0,2.2-1,2.2-3.1c0.7,0.1,1.3,0.2,2,0.3c0.7,0.1,1.3,0.2,2,0.3
				c0,1.9-0.6,3.4-1.6,4.5c-1,1.1-2.5,1.7-4.5,1.7c-2.1,0-3.6-0.5-4.6-1.6c-1-1.1-1.5-2.6-1.5-4.6V8.3c0-0.9,0.1-1.8,0.3-2.7
				c0.2-0.8,0.6-1.6,1-2.2c0.5-0.6,1.1-1.1,1.9-1.5C190.8,1.6,191.8,1.4,192.9,1.4L192.9,1.4z"/>
			<polygon id="XMLID_831_" class="st0" points="207.9,5.3 207.9,26.9 204,26.9 204,5.3 199.9,5.3 199.9,1.7 212,1.7 212,5.3 
				207.9,5.3 			"/>
			<polygon id="XMLID_828_" class="st0" points="214.1,26.9 214.1,1.7 225.3,1.7 225.3,5.3 218,5.3 218,12.2 224.3,12.2 224.3,16 
				218,16 218,23.3 225.3,23.3 225.3,26.9 214.1,26.9 			"/>
			<path id="XMLID_823_" class="st0" d="M238.6,3.1c-1.1-1.2-2.8-2.2-5.1-2.2h-5.8v26h4V17h1.8c1.3,0,2.4-0.1,3.3-0.4
				s1.6-0.9,2.1-1.5c0.5-0.7,0.9-1.5,1.1-2.5c0.2-1,0.3-2.2,0.3-3.4C240.2,6.4,239.6,4.3,238.6,3.1z M235.7,12.2
				c-0.5,0.7-1.3,0.8-2.5,0.8h-1.6V5h1.6c1.2,0,2,0.5,2.5,1.3c0.4,0.7,0.7,1.7,0.7,2.9C236.4,10.5,236.2,11.5,235.7,12.2z"/>
		</g>
		<g id="XMLID_806_">
			<path id="XMLID_813_" class="st1" d="M273.9,26.9h6.7V1.7h-6.7V26.9L273.9,26.9z M265,26.9h6.7V1.7H265V26.9L265,26.9z
				 M256.1,26.9h6.7V1.7h-6.7V26.9L256.1,26.9z M247.2,26.9h6.7V1.7h-6.7V26.9L247.2,26.9z"/>
			<polygon id="XMLID_810_" class="st2" points="247.2,10.7 253.9,10.7 253.9,26.9 247.2,26.9 247.2,10.7 			"/>
			<polygon id="XMLID_809_" class="st3" points="256.1,15.7 262.8,15.7 262.8,26.9 256.1,26.9 256.1,15.7 			"/>
			<polygon id="XMLID_808_" class="st4" points="265,5.9 271.7,5.9 271.7,26.9 265,26.9 265,5.9 			"/>
			<polygon id="XMLID_807_" class="st5" points="273.9,11.8 280.6,11.8 280.6,26.9 273.9,26.9 273.9,11.8 			"/>
		</g>
	</g>
	<rect id="XMLID_804_" x="134.6" y="12.2" class="st1" width="11" height="4"/>
</g>
</svg>
