<?xml version="1.0" encoding="utf-8"?>
<!-- Generator: Adobe Illustrator 19.0.0, SVG Export Plug-In . SVG Version: 6.00 Build 0)  -->
<svg version="1.1" id="Layer_1" xmlns="http://www.w3.org/2000/svg" xmlns:xlink="http://www.w3.org/1999/xlink" x="0px" y="0px"
	 viewBox="0 0 925 105" style="enable-background:new 0 0 925 105;" xml:space="preserve" width="925px" height="105px">
<style type="text/css">
	.st0{fill-rule:evenodd;clip-rule:evenodd;fill:#FEFEFE;}
	.st1{fill:#FEFEFE;}
	.st2{fill-rule:evenodd;clip-rule:evenodd;fill:#FFFFFF;}
	.st3{fill:#FFFFFF;}
</style>
<g id="XMLID_1_">
	<path id="XMLID_2648_" class="st0" d="M26.3,22.8L26.3,22.8c-0.1,0.4-0.4,1.1-1,1.1h0l-1.2,0c-0.2,0-0.3-0.2-0.2-0.3l3.2-9.2
		c0.1-0.2,0.3-0.3,0.5-0.3h0.4l0.4,0c0.2,0,0.5,0.1,0.6,0.2c0,0,0.2,0.2,0,0.7C29,14.9,26.3,22.4,26.3,22.8L26.3,22.8z M35.3,19.2
		c0,8.5-6.7,15.3-15.1,15.3c-0.1,0-0.2,0-0.3,0l1.2-3.4l1.8-5.1c0.1-0.2,0.3-0.3,0.5-0.3l1.3,0H26c0,0,0,0,0,0l0.4,0
		c2.7,0,3.1-1,3.6-2.4l1.5-4.3l1.1-3c0,0,0,0,0,0l0.1-0.3c1-2.6-0.9-3.5-2.7-3.5l-5.9,0L24,12.4l0,0l-4.1,11.9L16.5,34
		C10,32.3,5.1,26.3,5.1,19.2c0-6.5,4-12.1,9.7-14.3L7.6,25.4c-0.1,0.2,0,0.3,0.2,0.3l2.9,0c0.2,0,0.4-0.2,0.5-0.3l3.9-11
		c0.1-0.2,0.3-0.3,0.5-0.3l1.2,0c0.5,0,0.4,0.5,0.4,0.5l-0.4,1.1l-3.5,9.8c-0.1,0.2,0,0.3,0.2,0.3h3c0.2,0,0.4-0.2,0.5-0.3
		c0,0,3.1-8.5,3.7-10.4c0.6-1.9-1.1-2.8-1.8-2.8c-0.7,0-1.1,0-1.3,0h-1.4c-0.2,0-0.3-0.2-0.2-0.3l2.8-7.9c0.5,0,0.9-0.1,1.4-0.1
		C28.5,3.8,35.3,10.7,35.3,19.2L35.3,19.2z"/>
	<path id="XMLID_2640_" class="st0" d="M87.1,14.8l-7.4,4.4l3.9-6.3c-1.1-0.7-2.4-1.1-3.9-1.1c-4.1,0-7.4,3.3-7.4,7.4
		c0,4.1,3.3,7.4,7.4,7.4c2.7,0,5-1.4,6.3-3.5l0.3,1.1c-1.8,2.4-5.2,4.3-9.7,4.3c-7.4,0-11.4-4.5-11.4-9.2c0-4.8,4.2-9.2,11.4-9.2
		C81.7,9.9,84.9,11.8,87.1,14.8L87.1,14.8z M120.3,27.9h-5.4V17.1c0-0.7-0.6-1.4-1.3-1.4c-0.8,0-1.4,0.6-1.4,1.4l0,10.8h-5.4V15.8
		h-3.6l5.2-2.5c0.4-0.1,0.7-0.2,1.1-0.2c1.4,0,2.5,1,2.7,2.3l4.3-2c0.3-0.1,0.7-0.2,1.1-0.2c1.5,0,2.7,1.2,2.7,2.7V27.9L120.3,27.9z
		 M101.8,16.4l3.2,11.5h-5.4l-0.7-2.5c-1.1,1.6-3.4,2.9-6.1,2.9c-2.5,0-5.6-1.9-5.6-4.9c0-2.9,3.1-4.8,5.6-4.8
		c1.8,0,3.3,0.5,4.6,1.5l-1.2-4.3h-7l6.4-2.4C98.7,12.2,101.2,14.4,101.8,16.4L101.8,16.4z M95.4,26.2c1.5,0,2.8-1.2,2.8-2.8
		c0-1.5-1.2-2.8-2.8-2.8c-1.5,0-2.8,1.2-2.8,2.8C92.7,25,93.9,26.2,95.4,26.2L95.4,26.2z M122.1,20.7c0-4.2,3.4-7.7,7.7-7.7
		c4.2,0,7.7,3.4,7.7,7.7c0,4.2-3.4,7.6-7.7,7.6C125.5,28.4,122.1,25,122.1,20.7L122.1,20.7z M131.5,27.2c0.9-0.3,1.4-1.1,1.2-2
		l-2.7-9.8c-0.2-0.9-1.1-1.4-2-1.1c-0.9,0.2-1.4,1.1-1.1,2l2.7,9.8C129.7,27,130.6,27.5,131.5,27.2L131.5,27.2z M154.1,27.9h-5.4
		l0-10.8c0-0.7-0.6-1.4-1.3-1.4c-0.7,0-1.4,0.6-1.4,1.4l0,10.8h-5.4V15.8h-3.6l5.2-2.5c0.4-0.1,0.7-0.2,1.1-0.2c1.4,0,2.5,1,2.7,2.3
		l4.3-2c0.3-0.1,0.7-0.2,1.1-0.2c1.5,0,2.7,1.2,2.7,2.7V27.9L154.1,27.9z"/>
	<path id="XMLID_2632_" class="st1" d="M364.3,26.3c-3.8,0-5.3-3.5-5.3-7.1c0-3.6,1.5-7.1,5.3-7.1c3.8,0,5.3,3.5,5.3,7.1
		C369.6,22.7,368.1,26.3,364.3,26.3L364.3,26.3z M364.3,8.5c-6,0-9.5,4.5-9.5,10.7c0,6.2,3.5,10.7,9.5,10.7c6,0,9.5-4.5,9.5-10.7
		C373.8,13,370.3,8.5,364.3,8.5L364.3,8.5z M302.8,9.1h15.1v3.6H307v4.5h10.2v3.5H307v5h10.9v3.6h-15.1V9.1L302.8,9.1z M327.7,19.6
		h-3.8v-6.9l0,0h3.8c2.6,0,4.4,1.1,4.4,3.5C332.1,18.5,330.4,19.6,327.7,19.6L327.7,19.6z M319.7,29.3h4.2v-6.1h3.8
		c5.1,0,8.6-2.5,8.6-7.1c0-4.5-3.5-7.1-8.6-7.1h-8V29.3L319.7,29.3z M379.7,9.1h-4.3v20.2h4.1v-8.2c0-2.2-0.1-4.2-0.2-6
		c0.5,1,2,4,2.6,5.2l5.4,9h4.3V9.1h-4.1v8c0,2.2,0.1,4.4,0.2,6.2c-0.5-1-2-4-2.6-5.2L379.7,9.1L379.7,9.1z M341.1,22.6
		c0,2.7,2.3,3.8,4.7,3.8c1.6,0,4.1-0.5,4.1-2.5c0-2.2-3.1-2.6-6.1-3.4c-3.1-0.8-6.2-2-6.2-5.8c0-4.2,3.9-6.2,7.6-6.2
		c4.3,0,8.2,1.9,8.2,6.6h-4.2c-0.1-2.5-2-3.1-4.2-3.1c-1.4,0-3.2,0.6-3.2,2.3c0,1.6,1,1.8,6.1,3.1c1.5,0.4,6.1,1.3,6.1,5.9
		c0,3.7-2.9,6.5-8.5,6.5c-4.5,0-8.7-2.2-8.7-7.3H341.1L341.1,22.6z"/>
	<path id="XMLID_2616_" class="st1" d="M723.7,5.3h-8.6l0,0l-5.3,5.3h8.6v8.6l5.3-5.3V5.3L723.7,5.3z M723.7,33h-8.6v0l-5.3-5.3h8.6
		v-8.6l5.3,5.3V33L723.7,33z M709.9,10.6l8.6,8.6l-8.6,8.6L709.9,10.6L709.9,10.6z M701.3,10.6l8.6,0l-8.6,8.6L701.3,10.6
		L701.3,10.6z M701.3,27.8l0-8.6l8.6,8.6L701.3,27.8L701.3,27.8z M731.4,27.3V11.7h-2.7v15.6H731.4L731.4,27.3z M740,27.3l-5.4-7.8
		l5.4-7.7h-2.7l-5.5,7.7l5.5,7.8H740L740,27.3z M762.7,11.7h-8c-0.9,0-1.6,0.7-1.6,1.5v12.5c0,0.9,0.7,1.6,1.6,1.6h8
		c0.9,0,1.6-0.7,1.6-1.6V13.2C764.2,12.4,763.5,11.7,762.7,11.7L762.7,11.7z M761.7,24.2L761.7,24.2c0,0.5-0.4,0.8-0.8,0.8h-4.3
		c-0.5,0-0.8-0.4-0.8-0.8v-9.4c0-0.4,0.4-0.8,0.8-0.8h4.3c0.4,0,0.8,0.4,0.8,0.8V24.2L761.7,24.2z M788.1,12.5v14.8h2.4v-0.8V14.9
		V14h0.2h1h3.9c0.5,0,0.8,0.4,0.8,0.8v2.6c0,0.5-0.4,0.8-0.8,0.8h-3.1h-0.8l0.1,0.1l5.2,9h2.9l-3.9-6.8h1.4c0.9,0,1.6-0.7,1.6-1.6
		v-5.7c0-0.9-0.7-1.6-1.6-1.6h-9.2V12.5L788.1,12.5z M774,25h-4.3c-0.5,0-0.8-0.4-0.8-0.8v-9.4c0-0.4,0.4-0.8,0.8-0.8h4.3h1.8v-2.3
		h-8.1c-0.9,0-1.6,0.7-1.6,1.5v12.5c0,0.9,0.7,1.6,1.6,1.6h8.1V25H774L774,25z M780.6,14h4.3h1.8v-2.3h-8.1c-0.9,0-1.6,0.7-1.6,1.5
		v12.5c0,0.9,0.7,1.6,1.6,1.6h8.1V25h-1.8h-4.3c-0.5,0-0.8-0.4-0.8-0.8v-3.5h6.4v-2.5h-6.4v-3.4C779.8,14.4,780.1,14,780.6,14
		L780.6,14z M748.7,11.7v3.1v3.6h-4c-0.4,0-0.8-0.4-0.8-0.8v-5.9h-2.8v7.4c0,0.9,0.7,1.6,1.6,1.6h6v3.5c0,0.5-0.4,0.8-0.8,0.8h-6.3
		v2.3h8c0.9,0,1.6-0.7,1.6-1.6v-14H748.7L748.7,11.7z M808.3,27.3h-6c-1.2,0-1.6-1-1.6-2v-5.5c0-0.9,0.7-1.6,1.6-1.6h6v-3.5
		c0-0.5-0.3-0.8-0.8-0.8h-6.3v-2.3h8c0.9,0,1.6,0.7,1.6,1.6v14.1H808.3L808.3,27.3z M803.5,24.3L803.5,24.3c0.1,0.4,0.4,0.7,0.8,0.7
		h3.3c0.5,0,0.8-0.4,0.8-0.8v-0.6v-3.1h-4c-0.4,0-0.8,0.4-0.8,0.8V24.3L803.5,24.3z"/>
	<path id="XMLID_2608_" class="st1" d="M616.7,15.3c-0.1-0.3-0.1-0.6,0-0.8c0.1-0.5,0.5-1,1.4-1c0.9,0,1.4,0.6,1.4,1.4
		c0,0.3,0,1,0,1h3.9v-1.1c0-3.4-3-3.9-5.2-3.9c-2.8,0-5,0.9-5.4,3.5c-0.1,0.7-0.1,1.3,0,2.1c0.7,3.2,6.2,4.1,7,6.1
		c0.1,0.4,0.1,0.9,0,1.2c-0.1,0.5-0.5,1-1.5,1c-1,0-1.6-0.6-1.6-1.4l0-1.5h-4.2V23c0,3.5,2.7,4.5,5.6,4.5c2.8,0,5.1-1,5.5-3.6
		c0.2-1.3,0-2.2,0-2.5C623,18.1,617.1,17.2,616.7,15.3L616.7,15.3z M652.3,23.9l-3.7-12.6h-5.8v15.5h3.8l-0.2-13l4,13h5.6V11.3h-3.9
		L652.3,23.9L652.3,23.9z M578.3,11.3L575.4,27h4.2l2.2-14.5l2.1,14.5h4.2l-2.9-15.7H578.3L578.3,11.3z M602,11.3l-2,12.3l-2-12.3
		h-6.4L591.3,27h3.9l0.1-14.5L598,27h4l2.7-14.5l0.1,14.5h3.9l-0.4-15.7H602L602,11.3z M638.5,11.3h-4v11.6c0,0.2,0,0.4,0,0.6
		c-0.1,0.4-0.4,1.1-1.5,1.1c-1.1,0-1.4-0.7-1.5-1.1c0-0.2,0-0.4,0-0.6V11.3h-4v11.3c0,0.3,0,0.9,0,1c0.3,2.9,2.6,3.9,5.5,3.9
		c2.9,0,5.2-1,5.5-3.9c0-0.2,0-0.7,0-1V11.3L638.5,11.3z M665.7,18.1v2.3h1.6v2.3c0,0.2,0,0.4,0,0.6c-0.1,0.4-0.5,1.1-1.6,1.1
		c-1.1,0-1.5-0.7-1.6-1.1c0-0.2,0-0.4,0-0.6v-7.2c0-0.3,0-0.5,0.1-0.7c0.1-0.4,0.4-1.1,1.6-1.1c1.2,0,1.5,0.8,1.6,1.1
		c0,0.2,0,0.6,0,0.6v0.9h4v-0.5c0,0,0-0.5,0-1c-0.3-2.9-2.7-3.9-5.5-3.9c-2.8,0-5.2,0.9-5.5,3.9c0,0.3-0.1,0.8-0.1,1v6.6
		c0,0.3,0,0.5,0.1,1c0.3,2.9,2.7,3.9,5.5,3.9c2.8,0,5.3-1,5.5-3.9c0-0.5,0-0.7,0.1-1v-4.2H665.7L665.7,18.1z M565.6,15.3
		c-0.1-0.3-0.1-0.6,0-0.8c0.1-0.5,0.4-1.1,1.4-1.1c0.9,0,1.5,0.6,1.5,1.4c0,0.3,0,1,0,1h3.9v-1.1c0-3.4-3.1-4-5.3-4
		c-2.8,0-5.1,0.9-5.5,3.5c-0.1,0.7-0.1,1.3,0,2.1c0.7,3.2,6.3,4.1,7.1,6.2c0.2,0.4,0.1,0.9,0,1.2c-0.1,0.5-0.5,1.1-1.5,1.1
		c-1,0-1.6-0.6-1.6-1.4l0-1.5h-4.2V23c0,3.5,2.8,4.6,5.7,4.6c2.8,0,5.2-1,5.5-3.6c0.2-1.4,0-2.2,0-2.6
		C572,18.1,566.1,17.1,565.6,15.3L565.6,15.3z"/>
	<path id="XMLID_2603_" class="st0" d="M187.8,14.9c1.3-1.1,2.8-2.1,4.5-2.1c4.1,0,7.5,2.9,8.1,6.8c0.5-4.6,3.5-6.9,8.1-6.9h0.4v3
		c1.5-1.8,3.8-3,6.3-3c4.3,0,7.7,3.3,8.1,7.4v-11h4V13h6.1v3.5h-6.1V22c0,2,1.5,3.6,3.5,3.6c2,0,3.6-1.6,3.6-3.6V9.3h3.9v5
		c1.1-0.9,2-1.6,3.5-1.6c3.5,0,6.4,3.2,6.4,7.1l0,1c0.1-4.5,3.7-8.1,8.2-8.1c4.2,0,7.6,3.1,8.1,7.1c0.4-4.7,3.4-7.1,8.1-7.1h0.3v3.6
		l-0.3,0c-3,0-4.4,2.1-4.4,4.6v8h-3.7l0-6.6l0,0.1l-12.6,0c0.4,2.2,2.3,3.8,4.6,3.8c1.9,0,3.6-1.2,4.3-2.9l3.6,0
		c-1,3.4-4.1,5.9-7.8,5.9c-4.5,0-8.1-3.7-8.2-8.2l0,7.9h-3.5v-9.1c0-1.9-1.4-3.5-3.2-3.5c-1.8,0-3.2,1.6-3.2,3.5v9.1h-3.9v-1.2
		c-1,0.9-2.4,1.4-4,1.4c-4.1,0-7.2-3.3-7.2-7.4v0c-0.4,4.2-3.9,7.4-8.1,7.4c-4.5,0-8.2-3.7-8.2-8.2c0-1.7,0.5-3.3,1.4-4.6
		c-2.9,0-4.4,2.1-4.4,4.6v8h-3.7l0-6.3c-0.8,3.7-4.1,6.5-8,6.5c-4.5,0-8.2-3.7-8.2-8.2V9.2h3.7V14.9L187.8,14.9z M260.6,19.1
		L260.6,19.1c-0.6-1.8-2.3-3.2-4.4-3.2c-2,0-3.8,1.3-4.4,3.2L260.6,19.1L260.6,19.1z M215.1,25.5L215.1,25.5c2.6,0,4.6-2.1,4.6-4.6
		c0-2.6-2.1-4.6-4.6-4.6c-2.6,0-4.6,2.1-4.6,4.6C210.5,23.5,212.6,25.5,215.1,25.5L215.1,25.5z M192.2,25.5L192.2,25.5
		c2.6,0,4.6-2.1,4.6-4.6c0-2.6-2.1-4.6-4.6-4.6c-2.6,0-4.6,2.1-4.6,4.6C187.6,23.5,189.7,25.5,192.2,25.5L192.2,25.5z"/>
	<path id="XMLID_2586_" class="st1" d="M531.5,19.2c0,2.3-0.5,4.5-1.4,6.5c-0.1-3.1-1.5-6.2-3.6-8.9c0.6-3.8,0.2-7-0.4-9.4
		C529.3,10.2,531.5,14.4,531.5,19.2L531.5,19.2z M517.8,16.1c-5.9-3.6-11.7-5.1-16.2-2.8c-0.1,0.2-0.2,0.5-0.3,0.7
		c4.5-2.3,10.3-0.8,16.2,2.8c1,0.6,2,1.3,2.8,2c-0.2,0.5-0.4,1-0.6,1.5c-4,8.8-9,12.1-11.3,12.5c0.1,0.1,0.3,0.2,0.4,0.2
		c4-0.6,9-6.2,12-13.8c0.3,0.3,0.7,0.6,1,0.9c-3.4,8.5-8.4,12.4-12.2,13.3c0.1,0.1,0.3,0.1,0.5,0.2c3.8-0.7,8.7-4.1,12.3-13
		c0.3,0.3,0.5,0.5,0.8,0.8c-3.4,8.4-8.1,11.6-12,12.6c0.2,0.1,0.4,0.1,0.7,0.2c4.1-0.9,8.5-4,11.9-12.2c2,2.4,3.3,5,3.7,7.8
		c0.1-0.1,0.2-0.2,0.3-0.4c-0.3-2.9-1.6-5.7-3.7-8.1c0.1-0.4,0.3-0.7,0.4-1.1l0-0.1c2.2,2.6,3.6,5.5,3.9,8.6
		c0.1-0.2,0.3-0.4,0.4-0.6c-0.3-3.2-1.8-6.3-4-8.9c0.1-0.4,0.2-0.8,0.3-1.2c2.3,2.7,3.8,5.9,4.1,9.3c0.1-0.2,0.2-0.4,0.3-0.5
		c-0.3-3.5-1.8-6.8-4.3-9.5c1-4.4,0.6-8.2-0.5-10.7c-0.2-0.1-0.4-0.3-0.6-0.4c1.1,2.4,1.4,6.2,0.5,10.5c-0.3-0.3-0.5-0.5-0.8-0.8
		c0.9-4.2,0.5-7.9-0.6-10.2c-0.2-0.1-0.4-0.2-0.6-0.3c1.1,2.2,1.4,6.1,0.6,10c-0.3-0.3-0.6-0.5-0.9-0.8c1.2-5,0.3-8-0.4-9.5
		c-0.2-0.1-0.4-0.2-0.6-0.2c0.9,1.7,1.4,4.9,0.4,9.4c-0.8-0.6-1.6-1.1-2.4-1.6c-5.5-3.2-11.3-4.7-15.8-2.8c-0.2,0.2-0.4,0.5-0.6,0.8
		c4.5-2.1,10.4-0.6,16,2.7c0.9,0.5,1.7,1.1,2.5,1.7c-0.1,0.4-0.2,0.8-0.3,1.2c-0.8-0.6-1.7-1.2-2.7-1.8c-5.9-3.5-11.8-4.9-16.3-2.6
		c-0.1,0.2-0.2,0.4-0.4,0.7c4.5-2.4,10.4-0.9,16.3,2.7c1,0.6,1.9,1.2,2.7,1.9c-0.1,0.4-0.3,0.8-0.4,1.2
		C519.8,17.3,518.8,16.7,517.8,16.1L517.8,16.1z M523.5,20.6c-0.3-0.3-0.5-0.5-0.8-0.8c0.1-0.2,0.2-0.5,0.3-0.7
		c0.1-0.2,0.1-0.3,0.2-0.5c0.3,0.3,0.5,0.5,0.8,0.8c-0.1,0.2-0.1,0.3-0.2,0.5C523.6,20.1,523.6,20.4,523.5,20.6L523.5,20.6z
		 M522.1,19.3c-0.3-0.3-0.7-0.6-1-0.9c0.1-0.2,0.2-0.5,0.3-0.8c0.1-0.1,0.1-0.3,0.2-0.4c0.3,0.3,0.7,0.6,1,0.9
		c-0.1,0.3-0.2,0.6-0.3,0.8C522.2,19,522.2,19.2,522.1,19.3L522.1,19.3z M524.2,18.5c-0.3-0.3-0.5-0.5-0.8-0.8
		c0.1-0.4,0.2-0.8,0.3-1.2c0.3,0.3,0.5,0.5,0.8,0.8C524.4,17.7,524.3,18.1,524.2,18.5L524.2,18.5z M522.8,17.2
		c-0.3-0.3-0.6-0.6-1-0.9c0.1-0.4,0.2-0.8,0.3-1.2c0.3,0.3,0.7,0.5,1,0.8C523.1,16.4,523,16.8,522.8,17.2L522.8,17.2z M526.7,30.3
		c-2.8,2.7-6.6,4.4-10.8,4.4c-0.9,0-1.8-0.1-2.6-0.2c4.7-1.4,8.1-5.1,10.6-10.1C526.1,26.6,526.8,28.6,526.7,30.3L526.7,30.3z
		 M507.5,32.2c-4.2-2.8-7-7.5-7-13c0-1.5,0.2-2.9,0.6-4.3c4.9-2.2,12,0.3,17.8,4.5C514.5,28.9,510.1,31.7,507.5,32.2L507.5,32.2z
		 M504.7,8.5c2.8-3,6.8-4.8,11.3-4.8c1.6,0,3.2,0.2,4.6,0.7c0.9,2,1,4.7,0.6,7.5c-1.6-1.1-3.2-2-5.4-2.8
		C511.4,7.4,507.5,7.6,504.7,8.5L504.7,8.5z M461.8,11.1c-0.5-0.1-1.4-0.1-2.1-0.1s-3-0.2-4.9,1.5c-1.9,1.6-1.5,4.6-1.5,4.6v8.1
		c0,0-0.1,0.9,0.7,0.9h2.3c0.8,0,0.7-0.9,0.7-0.9v-7.5c0-2.2,0.1-2.7,0.9-3.3c0.9-0.7,3-0.5,3.6-0.4c0.3,0,0.4-0.4,0.4-0.4
		s0.2-1,0.3-1.5C462.3,11.3,462.4,11.2,461.8,11.1L461.8,11.1z M473.3,18.4c0,2-0.6,5-3.6,5c-3,0-3.6-3-3.6-5c0-2,0.6-4.6,3.6-4.6
		C472.7,13.8,473.3,16.4,473.3,18.4L473.3,18.4z M469.7,11L469.7,11c-4.5,0-7.6,3.4-7.6,7.6c0,4.2,3.1,7.6,7.6,7.6
		c4.5,0,7.6-3.4,7.6-7.6C477.3,14.4,474.2,11,469.7,11L469.7,11z M435.7,25.5c0,0-0.3-1.3-2.2-4c-1.1-1.5-2-2.5-2.6-3.1
		c0.7-0.5,1.5-1.4,2.3-2.6c1.5-2.3,2-3.6,2.1-3.9c0.1-0.3,0.2-0.7-0.3-0.7c-0.6,0-0.4,0-2.7,0c0,0-0.2,0-0.3,0.2
		c0,0.1-0.1,0.1-0.1,0.3c-0.3,0.7-1.7,3.2-2.9,4.5c-1.3-1.4-2.7-4.4-2.8-4.7c-0.2-0.4-0.4-0.4-0.4-0.4h-3.3c-0.5,0-0.3,0.7-0.3,0.7
		s0.3,1.4,2.1,4.1c0.8,1.2,1.5,2.2,2.1,2.9c-0.7,0.5-1.6,1.4-2.5,2.7c-1.5,2.3-2,3.6-2.1,3.9c-0.1,0.3-0.2,0.7,0.3,0.7
		c0.6,0,0.5,0,2.7,0c0,0,0.2,0,0.3-0.2c0-0.1,0.1-0.2,0.2-0.4c0.3-0.7,2-3.7,3.2-4.9c1.4,1,3.1,4.7,3.3,5.1c0.2,0.4,0.4,0.4,0.4,0.4
		h3.3C436,26.1,435.7,25.5,435.7,25.5L435.7,25.5z M491.7,25.5c0,0-0.3-1.3-2.2-4c-1.1-1.5-2-2.5-2.6-3.1c0.7-0.5,1.5-1.4,2.3-2.6
		c1.5-2.3,2-3.6,2.1-3.9c0.1-0.3,0.2-0.7-0.3-0.7c-0.6,0-0.4,0-2.7,0c0,0-0.2,0-0.3,0.2c0,0.1-0.1,0.1-0.1,0.3
		c-0.3,0.7-1.7,3.2-2.9,4.5c-1.3-1.4-2.7-4.4-2.8-4.7c-0.2-0.4-0.4-0.4-0.4-0.4h-3.3c-0.5,0-0.3,0.7-0.3,0.7s0.3,1.4,2.1,4.1
		c0.8,1.2,1.5,2.2,2.1,2.9c-0.7,0.5-1.6,1.4-2.5,2.7c-1.5,2.3-2,3.6-2.1,3.9c-0.1,0.3-0.2,0.7,0.3,0.7c0.6,0,0.5,0,2.7,0
		c0,0,0.2,0,0.3-0.2c0-0.1,0.1-0.2,0.2-0.4c0.3-0.7,2-3.7,3.2-4.9c1.4,1,3.1,4.7,3.3,5.1c0.2,0.4,0.4,0.4,0.4,0.4h3.3
		C492,26.1,491.7,25.5,491.7,25.5L491.7,25.5z M449.6,24.9c-1.4,1-4,1.4-5.9,1.4c-4,0-7.3-3-7.3-7.4c0-4,2.9-7.8,7.2-7.8
		c5.6,0,7.2,3.5,7.2,7.8c0,0,0,1-0.4,1h-9.9c0,0,0.1,1.6,1.2,2.5c0.9,0.7,2,1.2,4,1c1.7-0.2,3.1-1.1,3.1-1.1s0.4-0.3,0.7,0.3
		c0.3,0.6,0.6,1.6,0.6,1.6S450.1,24.5,449.6,24.9L449.6,24.9z M440.3,17.2L440.3,17.2h6.8c0,0,0.1-3.6-3.3-3.4
		C440.5,14,440.3,17.2,440.3,17.2L440.3,17.2z"/>
	<g id="XMLID_2575_">
		<g id="XMLID_2576_">
			<polygon id="XMLID_2584_" class="st2" points="377.9,91.9 373.9,100.4 370,91.9 373.9,83.5 			"/>
			<path id="XMLID_2583_" class="st2" d="M310.8,90.7c0-5.2,0-10.6,0-15.9c0-0.9,0.6-1.9,1.8-1.8v0v-0.7h-7.4V73
				c1.3-0.1,1.8,1.1,1.8,2.1c0,4.8,0,9.5,0,14.2c0,0.9-0.7,1.9-1.8,1.8v0v0.7h12.2l0.9-5.3h-0.7C316.8,89.7,313.9,91.4,310.8,90.7
				L310.8,90.7z"/>
			<path id="XMLID_2582_" class="st2" d="M332.1,87.7c-1.5,2.9-5.2,3.3-8.1,3.1v0v-6.3c2.1,0,4,0.7,4.3,3.1l0,0h0.7v-6.7h-0.7
				c-0.4,2.3-2.5,2.6-4.3,2.6v0v-6.2h3.7c1.9,0,3.4,1.7,3.8,3.4v0h0.7v-4.5l-13.8-0.1v0.7c1.3-0.1,1.7,1.3,1.7,2.2l0,0l0.1,10
				c0,0.7-0.2,1.2-0.6,1.7c-0.4,0.2-0.8,0.3-1.2,0.3v0v0.7H332l1-4.2H332.1z"/>
			<path id="XMLID_2581_" class="st2" d="M416,90.1l-6.5-7.6l3.4-3.1c0.9-0.7,1.8-1.5,2.7-2.1c0.4-0.2,0.8-0.3,1.2-0.3h0v-0.7
				l-5.9,0.1v0.8h1c0.2,0,0.3,0,0.4,0.2c0.2,0.6-0.4,1-0.7,1.3l0,0l-5.4,5.2l5.4,6.6c0.1,0.1,0.1,0.1,0.2,0.2v0v0.2l-0.2,0.2
				c-0.4,0.2-1,0.2-1.4,0.2v0v0.7h8v-0.7C417.2,91.1,416.5,90.8,416,90.1L416,90.1z"/>
			<path id="XMLID_2578_" class="st2" d="M359.2,85.9l-4-9.7H343v0.7c0.6,0,1.1,0.1,1.6,0.2c0,0.7-0.6,1.2-1,1.8v0l-2.2,2.7
				l-2.2-3.4c-0.1-0.1-0.3-0.4-0.3-0.7c0-0.6,1.3-0.5,1.7-0.5l0,0v-0.7h-7.8V77h0.7c0.6,0,0.9,0.5,1.2,1v0l4.4,6.6l-4.5,5.8
				c-0.3,0.4-1.1,0.8-1.8,0.8v0v0.7h5.6l-0.1-0.7c-0.4,0-0.8,0-1.2-0.1l0,0l-0.2-0.2l-0.1-0.3c0.1-0.5,0.4-0.9,0.7-1.3l0,0l2.8-3.4
				l2.4,3.7c0.1,0.1,0.4,0.6,0.4,0.7c0,0,0.1,0.1,0.1,0.2v0l-0.1,0.2l-0.2,0.2c-0.5,0.2-1,0.2-1.5,0.2v0v0.7h13v-0.7
				c-0.3,0-0.6-0.1-0.9-0.2v0l-0.2-0.2c-0.4-0.4-0.5-1-0.4-1.6v0V79l5.4,12.9h0.7l5.3-13.3v10.8c0,1-0.7,1.8-1.7,1.7l0,0v0.7h6.7
				v-0.7c-1,0.1-1.7-0.8-1.7-1.8h0V78.8c0-1.1,0.5-1.9,1.7-1.9l0,0v-0.7H363L359.2,85.9L359.2,85.9z M350.9,88.9c0,0.1,0,0.2,0,0.3
				c-0.1,0.3,0,0.6-0.1,0.8c-0.1,0.4-0.4,0.7-0.7,0.9c-1.2,0.4-2.4,0-3-0.9v0l-4.8-7l3.7-4.8c0.8-1,1.8-1.4,3.1-1.4
				c1.2,0,1.8,0.5,1.8,1.7l0,0V88.9z"/>
			<path id="XMLID_2577_" class="st2" d="M407.9,76.9v-0.7h-7.3l-0.1,0.7c1.1-0.1,1.8,0.9,1.8,1.8l0,0v10.3c0,0.6-0.2,1.1-0.5,1.6
				c-0.7,0.8-1.6,0.3-2.1-0.4v0l-4.4-6.2c1.2-0.2,2.5-0.7,3.4-1.8c0.4-0.6,0.7-1.2,0.7-1.9c0-3.2-3.7-4.3-6.3-4.3l0,0h-7.8V77
				c0.9,0,1.7,0.4,1.7,1.4v0v11.5c0,0.7-0.5,1.3-1.2,1.3c-0.7,0-1.4-0.6-1.6-1.3h0l-6.4-14.7l-2.1,4.5l4.8,10.4c0.5,1.1-1,1-1.6,1v0
				v0.7h13.8v-0.7c-1.1,0-1.8-0.6-1.8-1.8h0V77.2c2.5,0,4.5,0.4,4.5,3.4c0,2.4-2,3.6-4.3,3.2h0l5.4,8h11.4v-0.7
				c-0.4,0-0.9-0.2-1.3-0.4c-0.1-0.4-0.4-0.8-0.4-1.3h0v-5.7v-5.3C406.1,77.6,407,76.8,407.9,76.9L407.9,76.9z"/>
		</g>
	</g>
	<g id="XMLID_2567_">
		<path id="XMLID_2574_" class="st2" d="M623.7,84.3c0,3.1,2.3,5.4,6.2,5.4c1.6,0,3.2-0.3,4.8-1l1.4,2c-2,1.1-3.9,1.6-6.9,1.6
			c-6.2,0-10.7-3-10.7-8v0c0-5.1,4.5-8,10.7-8c3,0,4.7,0.4,6.8,1.3l-1.5,2.3c-1.6-0.8-3-1-4.6-1C626,78.8,623.7,81.1,623.7,84.3
			L623.7,84.3L623.7,84.3z"/>
		<path id="XMLID_2571_" class="st2" d="M647.3,89.8c-3.3,0-5.1-2.5-5.1-5.5c0-3.1,1.8-5.5,5.1-5.5c3.3,0,5.1,2.5,5.1,5.5
			C652.4,87.3,650.6,89.8,647.3,89.8L647.3,89.8z M647.3,76.2c-6,0-10.3,3-10.3,8c0,5.1,4.3,8,10.3,8c6,0,10.3-3,10.3-8
			C657.6,79.2,653.3,76.2,647.3,76.2L647.3,76.2z"/>
		<polygon id="XMLID_2570_" class="st2" points="673.2,85.4 673.2,91.9 678.1,91.9 678.1,76.6 673.2,76.6 673.2,82.5 665.6,82.5
			665.6,76.6 660.7,76.6 660.7,91.9 665.6,91.9 665.6,85.4 673.2,85.4 		"/>
		<polygon id="XMLID_2569_" class="st2" points="615.5,91.9 615.5,76.6 610.3,76.6 610.3,91.9 615.5,91.9 		"/>
		<path id="XMLID_2568_" class="st2" d="M595.4,83.6l0,1.5c2.5,1.9,4.9,4.4,6.8,6.8h5.8c-2-2.4-5.1-5.2-7.4-6.6
			c2.7-0.1,5.7-1.2,5.7-4.3c0-4-4.2-4.7-8.5-4.7c-3.5,0-6.7,0.2-8.7,0.3v15.3h4.9v-13c0.9-0.1,1.9-0.2,3.8-0.2
			c2.5,0,3.8,0.8,3.8,2.3C601.5,82.2,601,83.7,595.4,83.6L595.4,83.6z"/>
	</g>
	<g id="XMLID_2451_">
		<path id="XMLID_2467_" class="st2" d="M472,84.1c0-2.9-0.4-5.3-6.2-5.3c-4.9,0-6.5,1.8-6.5,4.6l0,0h4.4l0,0
			c0.1-1.1,1.1-1.5,1.8-1.5c0.5,0,1.6,0.1,1.6,1c0,2.7-8.4,0.2-8.4,5.9c0,2.6,2.7,3.6,4.1,3.6c1.8,0,3.3-0.4,4.6-1.7l0,0l0.5,1.3
			h4.3l0,0C472,91.7,472,84.1,472,84.1L472,84.1L472,84.1L472,84.1z M464.8,89.7c-1,0-1.4-0.7-1.4-1.3c0-1,2.2-1,3.8-1.8
			C467.3,88.3,466.5,89.7,464.8,89.7L464.8,89.7L464.8,89.7L464.8,89.7z"/>
		<path id="XMLID_2466_" class="st2" d="M558.5,87c-0.1,1-0.6,2.2-1.9,2.2c-1.5,0-2.4-1.5-2.4-3.4c0-1.5,0.5-3.4,2.4-3.4
			c0.5,0,1,0.2,1.3,0.5c0.3,0.3,0.5,0.7,0.5,1.3l0,0h4.7l0,0c-0.4-3.7-3.2-5.1-6.5-5.1c-4.1,0-7.1,2.4-7.1,6.6
			c0,4.2,3.1,6.7,7.1,6.7c3.4,0,6.2-1.7,6.6-5.5l0,0H558.5L558.5,87L558.5,87z"/>
		<polygon id="XMLID_2465_" class="st2" points="544.3,92.1 549,92.1 549,79.5 544.3,79.5 544.3,92.1 544.3,92.1 		"/>
		<polygon id="XMLID_2464_" class="st2" points="544.3,77.5 549,77.5 549,74.3 544.3,74.3 544.3,77.5 544.3,77.5 		"/>
		<path id="XMLID_2461_" class="st2" d="M522,78.9c-4.2,0-7,2.5-7,6.8c0,4.2,3.1,6.7,7.1,6.7c4,0,7.1-2.4,7.1-7
			C529.1,81.6,526.4,78.9,522,78.9L522,78.9L522,78.9L522,78.9z M522,89.1c-1.2,0-2.2-1.3-2.2-3.7c0-1.4,0.6-3.1,2.3-3.1
			c1.3-0.1,2.2,1.4,2.2,3.2C524.2,87.9,523.3,89.1,522,89.1L522,89.1L522,89.1L522,89.1z"/>
		<path id="XMLID_2460_" class="st2" d="M506.4,82.5c0-0.6,0.7-0.9,1.5-0.9c0.4,0,0.9,0.1,1.2,0.3c0.1,0.1,0.4,0.5,0.5,0.9l0,0h4.5
			l0,0c-0.1-3.3-3.4-4-6.2-4c-2.6,0-5.9,1-5.9,4.2c0,5.2,7.9,3.3,7.9,5.3c0,0.9-0.7,1.2-1.8,1.2c-0.5,0-1-0.3-1.3-0.6
			c-0.3-0.3-0.5-0.6-0.5-1.1l0,0h-4.4l0,0c0.1,3.5,3.2,4.7,6.1,4.7c5.2,0,6.8-2.3,6.8-4.9C514.6,82.8,506.3,84.3,506.4,82.5
			L506.4,82.5L506.4,82.5L506.4,82.5z"/>
		<path id="XMLID_2457_" class="st2" d="M501,84.1c0-2.9-0.4-5.3-6.2-5.3c-4.9,0-6.5,1.8-6.5,4.6l0,0h4.4l0,0
			c0.1-1.1,1.1-1.5,1.8-1.5c0.5,0,1.6,0.1,1.6,1c0,2.7-8.4,0.2-8.4,5.9c0,2.6,2.7,3.6,4.1,3.6c1.8,0,3.3-0.4,4.6-1.7l0,0l0.5,1.3
			h4.3l0,0C501,91.7,501,84.1,501,84.1L501,84.1L501,84.1L501,84.1z M493.8,89.7c-1,0-1.4-0.7-1.4-1.3c0-1,2.2-1,3.8-1.8
			C496.4,88.3,495.6,89.7,493.8,89.7L493.8,89.7L493.8,89.7L493.8,89.7z"/>
		<path id="XMLID_2454_" class="st2" d="M451.5,73.8h-8.4v18.3h5.4v-5.7h3.2l0,0c4.9,0,7.3-2.6,7.3-6.3
			C459,76.7,456.4,73.8,451.5,73.8L451.5,73.8L451.5,73.8L451.5,73.8z M451.3,82.4h-2.7v-4.1h2l0,0c1.2,0,3,0.3,3,1.9
			C453.5,81.7,452.6,82.4,451.3,82.4L451.3,82.4L451.3,82.4L451.3,82.4z"/>
		<path id="XMLID_2453_" class="st2" d="M538.6,78.9c-1.9,0-2.6,0.3-4.4,1.9l0,0l0-1.4l-4.5,0v12.8h4.5v-6.7l0,0
			c0-1.6,0.8-2.5,2.3-2.5c1.4,0,1.7,0.7,1.7,2l0,0v7.3h4.9v-7.8l0,0C543.2,80.9,541.9,78.9,538.6,78.9L538.6,78.9L538.6,78.9
			L538.6,78.9z"/>
		<path id="XMLID_2452_" class="st2" d="M482.3,78.9c-1.9,0-2.6,0.3-4.4,1.9l0,0l0-1.4l-4.5,0v12.8h4.7v-6.7l0,0
			c0-1.6,0.6-2.7,2.1-2.7c1.4,0,1.7,0.9,1.7,2.1l0,0v7.3h4.9v-7.8l0,0C486.9,80.9,485.5,78.9,482.3,78.9L482.3,78.9L482.3,78.9
			L482.3,78.9z"/>
	</g>
	<g id="XMLID_2425_">
		<path id="XMLID_2450_" class="st2" d="M91.4,90.4l0-1.3c-2.5,0.3-5.6-1-5.5-3.8c0-2.8,2.3-3.8,5.5-3.8v-1.4
			c-3.6-0.1-7.5,1-7.6,5.1C84,89.1,87.2,90.7,91.4,90.4L91.4,90.4z"/>
		<path id="XMLID_2447_" class="st2" d="M62,90.6c2.9,0,5.2-2.4,5.2-5.4c0-2.9-2.4-5.3-5.2-5.3c-2.8,0-5.2,2.4-5.2,5.3
			C56.8,88.2,59.2,90.6,62,90.6L62,90.6z M62,89.1c1.8,0,3.3-1.8,3.3-3.9c0-2.1-1.5-3.9-3.3-3.9c-1.8,0-3.3,1.8-3.3,3.9
			C58.7,87.4,60.2,89.1,62,89.1L62,89.1z"/>
		<path id="XMLID_2444_" class="st2" d="M141.3,90.6c2.9,0,5.2-2.4,5.2-5.4c0-2.9-2.3-5.3-5.2-5.3c-2.9,0-5.2,2.4-5.2,5.3
			C136.2,88.2,138.5,90.6,141.3,90.6L141.3,90.6z M141.3,89.1c1.8,0,3.3-1.8,3.3-3.9c0-2.1-1.5-3.9-3.3-3.9c-1.8,0-3.3,1.8-3.3,3.9
			C138.1,87.4,139.5,89.1,141.3,89.1L141.3,89.1z"/>
		<polygon id="XMLID_2443_" class="st2" points="47,80.2 48.8,80.2 48.8,90.4 47,90.4 47,80.2 		"/>
		<polygon id="XMLID_2442_" class="st2" points="80.4,80.2 82.2,80.2 82.2,90.4 80.4,90.4 80.4,80.2 		"/>
		<polygon id="XMLID_2441_" class="st2" points="121.2,80.2 123,80.2 123,90.4 121.2,90.4 121.2,80.2 		"/>
		<path id="XMLID_2440_" class="st2" d="M76.2,80.2h1.7v10.2c-0.5,0-1,0-1.5,0c-1.4-3.5-4.2-6.8-6-7.9v7.9h-1.7V80.2H70
			c2.7,1.7,5.1,4.2,6.2,6.3V80.2L76.2,80.2z"/>
		<path id="XMLID_2439_" class="st2" d="M133,80.2h1.7v10.2c-0.5,0-1,0-1.5,0c-1.4-3.5-4.2-6.8-6-7.9v7.9h-1.7V80.2h1.3
			c2.7,1.7,5.1,4.2,6.2,6.3V80.2L133,80.2z"/>
		<path id="XMLID_2438_" class="st2" d="M52.2,84.4c2.1,1.7,3.5,3.7,4.3,6h-2c-0.5-1.5-2.3-4.3-4.8-5.8l4.2-4.4h2.2L52.2,84.4
			L52.2,84.4z"/>
		<polygon id="XMLID_2437_" class="st2" points="92.2,90.4 93.9,90.4 96.7,83.8 100.2,90.4 102.2,90.4 96.8,80.1 92.2,90.4 		"/>
		<polygon id="XMLID_2436_" class="st2" points="148.1,80.2 149.9,80.2 149.9,89.1 154,89.1 154,90.4 149.9,90.4 148.1,90.4
			148.1,89.1 148.1,80.2 		"/>
		<path id="XMLID_2435_" class="st2" d="M160.2,80.2v1.3h-2.6v8.9h-1.8v-8.9h-2.6v-1.3C155.5,80.2,157.8,80.2,160.2,80.2L160.2,80.2
			z"/>
		<polygon id="XMLID_2434_" class="st2" points="159.1,90.4 160.8,90.4 163.7,83.8 167.1,90.4 169.1,90.4 163.7,80.1 159.1,90.4
			"/>
		<path id="XMLID_2433_" class="st2" d="M106.3,90.4c0.7,0,1.3,0,1.9,0c0.5-2.2,1-4.5,1.5-6.7c1.2,1.9,2,3.9,2.7,5.8h1.3
			c0.7-2,1.5-4,2.7-5.8c0.5,2.2,1,4.5,1.5,6.7c0.7,0,1.3,0,1.9,0c-1-3.5-1.6-6.9-2.9-10.3c-1.3,1.8-3,4.8-3.8,6.9
			c-0.7-2.2-2.5-5.1-3.8-6.9C107.9,83.5,107.3,86.9,106.3,90.4L106.3,90.4z"/>
		<path id="XMLID_2426_" class="st2" d="M34.4,74.4c2.2,1.9,3.7,4,4.6,6.6c0,0.2-0.1,0.4-0.3,0.4l-2.4,0.1l-13.2,0.1H10.4l-4.1-0.1
			c-0.1,0-0.2-0.2-0.2-0.3c0.3-1.1,0.8-2,1.4-3c3.9-6.2,11.1-8.9,18.4-7.7C28.9,71,31.9,72.3,34.4,74.4L34.4,74.4z M38.8,89.1
			c0.2,0.1,0.3,0.2,0.2,0.4c-2,6.3-8.4,10.4-14.8,10.8c-7,0.5-13.6-2.5-17.1-8.4c-0.4-0.8-0.8-1.6-1-2.5c-0.1-0.1,0-0.3,0.2-0.3
			l0.6-0.1l10,0h19.7L38.8,89.1L38.8,89.1z M39.3,87.2c0.5,0.3,0.1,0.9,0.1,1.3c-0.1,0.1-0.1,0.2-0.3,0.2l-2.5,0l-8.7-0.5l-5.7-0.2
			L13,88.3l-5.5,0.4c-0.6,0-1.1,0.2-1.7,0c-0.2-0.4-0.3-0.8-0.3-1.2c0.4-0.3,0.8-0.1,1.3-0.3l12.7,0.4H26l8.5-0.3
			C36.1,87.2,37.8,87.2,39.3,87.2L39.3,87.2z M39.7,85.6c0,0.4,0,0.8-0.1,1.1c-0.3,0.3-0.6,0.2-0.9,0.2l-6.3-0.3l-6.3-0.3l-7.6,0.1
			l-5.2,0.2l-6.9,0.5c-0.3,0-0.6,0-0.9-0.1c-0.2-0.4-0.2-0.8-0.2-1.3l0.2-0.1h1.6l10.2,0.4l6.2,0l4.8-0.1l10.4-0.5
			C39.1,85.4,39.5,85.3,39.7,85.6L39.7,85.6z M39.6,83.7c0,0.4,0.3,1.1-0.2,1.3h-2.2l-8.7-0.4h-7.8l-5,0.1l-9.6,0.4
			c-0.3-0.1-0.6,0-0.8-0.2c-0.1-0.4-0.1-0.8,0-1.1c0.3-0.4,0.7-0.1,1-0.2l10.7,0.6c3,0,6.1,0,9,0l6.2-0.3l6.4-0.4
			C39,83.5,39.4,83.4,39.6,83.7L39.6,83.7z M39.2,81.8c0.2,0.4,0.4,0.8,0.2,1.3l-0.2,0.1h-3.6L26.9,83l-6.4-0.1l-6.1,0.2l-7.5,0.2
			l-1.1-0.1c-0.5-0.3-0.2-0.8-0.1-1.2C5.8,82,5.9,81.8,6,81.8l2.5,0l7.5,0.4l6.8,0.3l12-0.7c1.5-0.1,2.9-0.3,4.3-0.3L39.2,81.8
			L39.2,81.8z"/>
	</g>
	<g id="XMLID_2381_">
		<g id="Printing_Solutions_2_">
			<path id="XMLID_2422_" class="st3" d="M842.8,36h-0.5v-4.7h1.2c0.2,0,0.4,0,0.5,0c0.2,0,0.3,0.1,0.4,0.1c0.3,0.1,0.5,0.2,0.6,0.4
				c0.1,0.2,0.2,0.4,0.2,0.7c0,0.2,0,0.4-0.1,0.6c-0.1,0.2-0.2,0.3-0.4,0.5c-0.2,0.1-0.4,0.2-0.6,0.3c-0.2,0.1-0.5,0.1-0.8,0.1
				c-0.1,0-0.3,0-0.5,0V36z M842.8,33.6c0.1,0,0.1,0,0.2,0c0.1,0,0.2,0,0.2,0c0.3,0,0.5,0,0.6-0.1c0.2,0,0.3-0.1,0.4-0.2
				c0.1-0.1,0.2-0.2,0.2-0.3c0.1-0.1,0.1-0.2,0.1-0.4c0-0.2,0-0.3-0.1-0.4c-0.1-0.1-0.2-0.2-0.4-0.3c-0.1,0-0.2-0.1-0.3-0.1
				c-0.1,0-0.3,0-0.4,0h-0.6V33.6z"/>
			<path id="XMLID_2419_" class="st3" d="M846.6,34.1V36h-0.5v-4.7h1.1c0.2,0,0.4,0,0.5,0c0.1,0,0.3,0,0.4,0.1
				c0.3,0.1,0.5,0.2,0.7,0.4c0.2,0.2,0.2,0.5,0.2,0.8c0,0.2,0,0.4-0.1,0.5c-0.1,0.1-0.1,0.3-0.2,0.4c-0.1,0.1-0.2,0.2-0.4,0.3
				c-0.1,0.1-0.3,0.1-0.5,0.2v0l1.3,2h-0.5l-1.4-1.9H846.6z M846.6,31.9v1.7h0.5c0.2,0,0.3,0,0.4,0c0.1,0,0.2,0,0.3-0.1
				c0.2-0.1,0.3-0.2,0.4-0.3c0.1-0.1,0.2-0.3,0.2-0.5c0-0.2-0.1-0.4-0.1-0.5c-0.1-0.1-0.2-0.2-0.4-0.3c-0.1,0-0.2,0-0.3-0.1
				c-0.1,0-0.2,0-0.4,0H846.6z"/>
			<path id="XMLID_2417_" class="st3" d="M850.1,36v-4.7h0.5V36H850.1z"/>
			<path id="XMLID_2415_" class="st3" d="M854,34c0.3,0.4,0.5,0.8,0.8,1.3h0c0-0.5,0-0.9,0-1.4v-2.5h0.5V36h-0.5l-1.7-2.6
				c-0.3-0.5-0.6-0.9-0.8-1.3h0c0,0.4,0,0.9,0,1.5V36h-0.5v-4.7h0.5L854,34z"/>
			<path id="XMLID_2413_" class="st3" d="M858,36h-0.5v-4.1H856v-0.5h3.5v0.5H858V36z"/>
			<path id="XMLID_2411_" class="st3" d="M860.2,36v-4.7h0.5V36H860.2z"/>
			<path id="XMLID_2409_" class="st3" d="M864.1,34c0.3,0.4,0.5,0.8,0.8,1.3h0c0-0.5,0-0.9,0-1.4v-2.5h0.5V36h-0.5l-1.7-2.6
				c-0.3-0.5-0.6-0.9-0.8-1.3h0c0,0.4,0,0.9,0,1.5V36h-0.5v-4.7h0.5L864.1,34z"/>
			<path id="XMLID_2407_" class="st3" d="M869.5,34.1h-1v-0.5h1.5v2.3c0,0-0.1,0.1-0.2,0.1c-0.1,0-0.2,0.1-0.3,0.1
				c-0.1,0-0.2,0-0.4,0.1c-0.1,0-0.3,0-0.4,0c-0.4,0-0.7-0.1-1-0.2c-0.3-0.1-0.5-0.3-0.7-0.5c-0.2-0.2-0.3-0.4-0.4-0.7
				c-0.1-0.3-0.2-0.6-0.2-1c0-0.4,0.1-0.7,0.2-1c0.1-0.3,0.3-0.6,0.5-0.8c0.2-0.2,0.5-0.4,0.8-0.5c0.3-0.1,0.6-0.2,1-0.2
				c0.1,0,0.2,0,0.3,0c0.1,0,0.2,0,0.3,0c0.1,0,0.2,0,0.2,0.1c0.1,0,0.1,0,0.2,0.1v0.5c-0.1,0-0.3-0.1-0.5-0.1c-0.2,0-0.3,0-0.5,0
				c-0.3,0-0.5,0-0.7,0.1c-0.2,0.1-0.4,0.2-0.6,0.4c-0.2,0.2-0.3,0.4-0.4,0.6c-0.1,0.2-0.2,0.5-0.2,0.9c0,0.3,0,0.6,0.1,0.8
				c0.1,0.2,0.2,0.4,0.4,0.6c0.2,0.2,0.3,0.3,0.6,0.3c0.2,0.1,0.5,0.1,0.7,0.1c0.1,0,0.3,0,0.4,0c0.1,0,0.2,0,0.3-0.1V34.1z"/>
			<path id="XMLID_2405_" class="st3" d="M872.9,32.6c0,0.1,0,0.3,0.1,0.3c0.1,0.1,0.1,0.2,0.2,0.2c0.1,0.1,0.2,0.1,0.3,0.1
				c0.1,0,0.2,0.1,0.4,0.1c0.2,0,0.3,0.1,0.5,0.1c0.2,0.1,0.3,0.1,0.4,0.2c0.1,0.1,0.2,0.2,0.3,0.4c0.1,0.2,0.1,0.3,0.1,0.6
				c0,0.2,0,0.4-0.1,0.6c-0.1,0.2-0.2,0.3-0.4,0.4c-0.2,0.1-0.3,0.2-0.5,0.3c-0.2,0.1-0.4,0.1-0.7,0.1c-0.1,0-0.2,0-0.4,0
				c-0.1,0-0.2,0-0.3-0.1c-0.1,0-0.2-0.1-0.3-0.1c-0.1,0-0.2-0.1-0.2-0.1v-0.5c0.1,0,0.2,0.1,0.3,0.1c0.1,0,0.2,0.1,0.3,0.1
				c0.1,0,0.2,0,0.3,0.1c0.1,0,0.2,0,0.3,0c0.2,0,0.3,0,0.4,0c0.1,0,0.3-0.1,0.4-0.1c0.1-0.1,0.2-0.2,0.3-0.3
				c0.1-0.1,0.1-0.3,0.1-0.4c0-0.1,0-0.3-0.1-0.3c-0.1-0.1-0.1-0.2-0.2-0.2c-0.1-0.1-0.2-0.1-0.3-0.1c-0.1,0-0.2-0.1-0.4-0.1
				c-0.2,0-0.3-0.1-0.5-0.1c-0.2-0.1-0.3-0.1-0.4-0.2c-0.1-0.1-0.2-0.2-0.3-0.4c-0.1-0.1-0.1-0.3-0.1-0.6c0-0.2,0-0.4,0.1-0.6
				c0.1-0.2,0.2-0.3,0.3-0.4c0.1-0.1,0.3-0.2,0.5-0.2c0.2-0.1,0.4-0.1,0.6-0.1c0.2,0,0.5,0,0.7,0.1c0.2,0,0.4,0.1,0.6,0.2v0.5
				c-0.2-0.1-0.4-0.1-0.6-0.2c-0.2-0.1-0.4-0.1-0.6-0.1c-0.2,0-0.3,0-0.4,0.1c-0.1,0-0.2,0.1-0.3,0.2c-0.1,0.1-0.1,0.2-0.2,0.3
				C872.9,32.4,872.9,32.5,872.9,32.6z"/>
			<path id="XMLID_2402_" class="st3" d="M879.7,33.7c0,0.4,0,0.7-0.1,1c-0.1,0.3-0.2,0.5-0.3,0.8c-0.1,0.2-0.3,0.4-0.5,0.5
				c-0.2,0.1-0.4,0.2-0.7,0.2c-0.3,0-0.5-0.1-0.7-0.2c-0.2-0.1-0.4-0.3-0.5-0.5c-0.1-0.2-0.2-0.5-0.3-0.8c-0.1-0.3-0.1-0.6-0.1-1
				c0-0.4,0-0.7,0.1-1c0.1-0.3,0.2-0.6,0.3-0.8c0.1-0.2,0.3-0.4,0.5-0.5c0.2-0.1,0.4-0.2,0.7-0.2c0.2,0,0.5,0.1,0.7,0.2
				c0.2,0.1,0.4,0.3,0.5,0.5c0.1,0.2,0.2,0.5,0.3,0.8C879.6,33,879.7,33.3,879.7,33.7z M879.3,33.7c0-0.3,0-0.6-0.1-0.8
				c-0.1-0.2-0.1-0.4-0.2-0.6c-0.1-0.2-0.2-0.3-0.4-0.4c-0.1-0.1-0.3-0.1-0.5-0.1c-0.2,0-0.3,0-0.5,0.1c-0.1,0.1-0.3,0.2-0.4,0.4
				c-0.1,0.2-0.2,0.4-0.2,0.6c-0.1,0.2-0.1,0.5-0.1,0.8c0,0.3,0,0.6,0.1,0.8c0.1,0.2,0.1,0.4,0.3,0.6c0.1,0.2,0.2,0.3,0.4,0.4
				c0.1,0.1,0.3,0.1,0.5,0.1c0.2,0,0.3,0,0.5-0.1c0.1-0.1,0.3-0.2,0.4-0.4c0.1-0.2,0.2-0.4,0.2-0.6C879.2,34.3,879.3,34,879.3,33.7z
				"/>
			<path id="XMLID_2400_" class="st3" d="M881.6,31.4v4.1h2.2V36h-2.7v-4.7H881.6z"/>
			<path id="XMLID_2398_" class="st3" d="M886.3,35.6c0.2,0,0.3,0,0.4-0.1c0.1,0,0.2-0.1,0.3-0.2c0.1-0.1,0.2-0.2,0.2-0.3
				c0.1-0.1,0.1-0.2,0.1-0.3c0-0.1,0-0.2,0-0.3c0-0.1,0-0.2,0-0.3v-2.9h0.5v2.9c0,0.1,0,0.2,0,0.3c0,0.1,0,0.2-0.1,0.3
				c0,0.2-0.1,0.3-0.2,0.5c-0.1,0.1-0.2,0.3-0.3,0.4c-0.1,0.1-0.3,0.2-0.5,0.3c-0.2,0.1-0.4,0.1-0.7,0.1c-0.2,0-0.5,0-0.6-0.1
				c-0.2-0.1-0.3-0.1-0.5-0.2c-0.1-0.1-0.2-0.2-0.3-0.4c-0.1-0.1-0.1-0.3-0.2-0.4c0-0.1-0.1-0.2-0.1-0.4c0-0.1,0-0.3,0-0.4v-2.9h0.5
				v2.9c0,0.1,0,0.2,0,0.3c0,0.1,0,0.2,0.1,0.3c0.1,0.2,0.2,0.4,0.4,0.5C885.8,35.5,886,35.6,886.3,35.6z"/>
			<path id="XMLID_2396_" class="st3" d="M890.7,36h-0.5v-4.1h-1.5v-0.5h3.5v0.5h-1.5V36z"/>
			<path id="XMLID_2394_" class="st3" d="M892.9,36v-4.7h0.5V36H892.9z"/>
			<path id="XMLID_2391_" class="st3" d="M898,33.7c0,0.4,0,0.7-0.1,1c-0.1,0.3-0.2,0.5-0.3,0.8c-0.1,0.2-0.3,0.4-0.5,0.5
				c-0.2,0.1-0.4,0.2-0.7,0.2c-0.3,0-0.5-0.1-0.7-0.2c-0.2-0.1-0.4-0.3-0.5-0.5c-0.1-0.2-0.2-0.5-0.3-0.8c-0.1-0.3-0.1-0.6-0.1-1
				c0-0.4,0-0.7,0.1-1c0.1-0.3,0.2-0.6,0.3-0.8c0.1-0.2,0.3-0.4,0.5-0.5c0.2-0.1,0.4-0.2,0.7-0.2c0.2,0,0.5,0.1,0.7,0.2
				c0.2,0.1,0.4,0.3,0.5,0.5c0.1,0.2,0.2,0.5,0.3,0.8C898,33,898,33.3,898,33.7z M897.6,33.7c0-0.3,0-0.6-0.1-0.8
				c-0.1-0.2-0.1-0.4-0.3-0.6c-0.1-0.2-0.2-0.3-0.4-0.4c-0.1-0.1-0.3-0.1-0.5-0.1s-0.3,0-0.5,0.1c-0.1,0.1-0.3,0.2-0.4,0.4
				c-0.1,0.2-0.2,0.4-0.3,0.6c-0.1,0.2-0.1,0.5-0.1,0.8c0,0.3,0,0.6,0.1,0.8c0.1,0.2,0.1,0.4,0.3,0.6c0.1,0.2,0.2,0.3,0.4,0.4
				c0.1,0.1,0.3,0.1,0.5,0.1c0.2,0,0.3,0,0.5-0.1c0.1-0.1,0.3-0.2,0.4-0.4c0.1-0.2,0.2-0.4,0.3-0.6C897.6,34.3,897.6,34,897.6,33.7z
				"/>
			<path id="XMLID_2389_" class="st3" d="M901.8,34c0.3,0.4,0.5,0.8,0.8,1.3h0c0-0.5,0-0.9,0-1.4v-2.5h0.5V36h-0.5l-1.7-2.6
				c-0.3-0.5-0.6-0.9-0.8-1.3h0c0,0.4,0,0.9,0,1.5V36h-0.5v-4.7h0.5L901.8,34z"/>
			<path id="XMLID_2387_" class="st3" d="M904.6,32.6c0,0.1,0,0.3,0.1,0.3c0.1,0.1,0.1,0.2,0.2,0.2c0.1,0.1,0.2,0.1,0.3,0.1
				c0.1,0,0.2,0.1,0.4,0.1c0.2,0,0.3,0.1,0.5,0.1c0.2,0.1,0.3,0.1,0.4,0.2c0.1,0.1,0.2,0.2,0.3,0.4c0.1,0.2,0.1,0.3,0.1,0.6
				c0,0.2,0,0.4-0.1,0.6c-0.1,0.2-0.2,0.3-0.4,0.4c-0.2,0.1-0.3,0.2-0.5,0.3c-0.2,0.1-0.4,0.1-0.7,0.1c-0.1,0-0.2,0-0.4,0
				c-0.1,0-0.2,0-0.3-0.1c-0.1,0-0.2-0.1-0.3-0.1c-0.1,0-0.2-0.1-0.2-0.1v-0.5c0.1,0,0.2,0.1,0.3,0.1c0.1,0,0.2,0.1,0.3,0.1
				c0.1,0,0.2,0,0.3,0.1c0.1,0,0.2,0,0.3,0c0.2,0,0.3,0,0.4,0c0.1,0,0.3-0.1,0.4-0.1c0.1-0.1,0.2-0.2,0.3-0.3
				c0.1-0.1,0.1-0.3,0.1-0.4c0-0.1,0-0.3-0.1-0.3c-0.1-0.1-0.1-0.2-0.2-0.2c-0.1-0.1-0.2-0.1-0.3-0.1c-0.1,0-0.2-0.1-0.4-0.1
				c-0.2,0-0.3-0.1-0.5-0.1c-0.2-0.1-0.3-0.1-0.4-0.2c-0.1-0.1-0.2-0.2-0.3-0.4c-0.1-0.1-0.1-0.3-0.1-0.6c0-0.2,0-0.4,0.1-0.6
				c0.1-0.2,0.2-0.3,0.3-0.4c0.1-0.1,0.3-0.2,0.5-0.2c0.2-0.1,0.4-0.1,0.6-0.1c0.2,0,0.5,0,0.7,0.1c0.2,0,0.4,0.1,0.6,0.2v0.5
				c-0.2-0.1-0.4-0.1-0.6-0.2c-0.2-0.1-0.4-0.1-0.6-0.1c-0.2,0-0.3,0-0.4,0.1c-0.1,0-0.2,0.1-0.3,0.2c-0.1,0.1-0.1,0.2-0.2,0.3
				C904.6,32.4,904.6,32.5,904.6,32.6z"/>
		</g>
		<g id="OKI_2_">
			<g id="XMLID_45_">
				<polygon id="XMLID_50_" class="st3" points="905.7,23.7 905.7,11.2 907.9,11.2 907.9,8.9 895.1,8.9 895.1,11.2 898,11.2
					898,23.7 895.3,23.7 895.3,25.9 908.1,25.9 908.1,23.7 				"/>
				<polygon id="XMLID_49_" class="st3" points="891.2,23.7 883,14.9 888.8,11.1 892.3,11.1 892.3,8.9 881.6,8.9 881.6,11.1
					883.4,11.1 876.7,16 876.7,11.1 878.7,11.1 878.7,8.9 866.6,8.9 866.6,11.1 868.9,11.1 868.9,23.7 866.9,23.7 866.9,25.9
					879,25.9 879,23.7 876.7,23.7 876.7,19 877.9,18.2 883,23.7 881.9,23.7 881.9,25.9 893.9,25.9 893.9,23.7 				"/>
				<path id="XMLID_46_" class="st3" d="M856.8,8.2h-7.1c-4.7,0-8.5,3.8-8.5,8.5v1.3c0,4.7,3.8,8.5,8.5,8.5h7.1
					c4.7,0,8.5-3.8,8.5-8.5v-1.3C865.4,12.1,861.5,8.2,856.8,8.2z M857.4,19.8c0,2.3-1.9,4.2-4.2,4.2c-2.3,0-4.2-1.9-4.2-4.2V15
					c0-2.3,1.9-4.2,4.2-4.2c2.3,0,4.2,1.9,4.2,4.2V19.8z"/>
			</g>
		</g>
	</g>
	<g id="XMLID_2361_">
		<polygon id="XMLID_2375_" class="st2" points="826,92.1 821.9,92.1 821.9,80.4 817.1,80.4 817.1,76.9 830.9,76.9 830.9,80.4
			826,80.4 826,92.1 826,92.1 		"/>
		<path id="XMLID_2372_" class="st2" d="M832.9,80.9c0.6-3.6,3.8-4.1,6.9-4.1c5.3,0,7.1,1.3,7.1,6.8c0,5.6-0.1,8.6-7,8.6
			c-2.7,0-6-0.2-6.9-3.3c-0.3-1-0.3-2.1-0.3-3.2l0,0v-1.1l0,0C832.7,83.4,832.7,82.1,832.9,80.9L832.9,80.9L832.9,80.9L832.9,80.9z
			 M836.8,85.4c0,2.1,0,3.3,2.6,3.3c2.8,0,3.2-0.7,3.2-3.3c0-0.7,0-1.5,0-2.2c0-2-0.3-2.9-2.5-2.9c-3.2,0-3.2,0.3-3.3,4.2l0,0V85.4
			L836.8,85.4L836.8,85.4z"/>
		<path id="XMLID_2371_" class="st2" d="M858.8,81.6c0-1.6-0.5-1.8-2-1.8l0,0h-0.4l0,0c-1.1,0-2.2,0-2.2,1.4c0,0.9,0.3,1.4,1.3,1.4
			c3.5,0.3,7.7-0.4,7.7,4.5c0,1.3,0,2.9-1.1,3.9c-1.3,1.1-3,1.1-4.6,1.1l0,0h-1l0,0c-4.2,0-6.4-0.2-6.4-5l0,0h3.9l0,0
			c0,1.1,0.3,1.8,1.6,1.8l0,0h1.8l0,0c1,0,1.9-0.1,1.9-1.5c0-1.3-0.8-1.3-1.9-1.4c-4.4-0.3-7.1,0.1-7.1-5c0-2.6,1.1-4,3.8-4.2
			c0.9-0.1,1.8-0.1,2.7-0.1c3.5,0,6.2,0.1,6.2,4.4c0,0.2,0,0.3,0,0.5l0,0H858.8L858.8,81.6L858.8,81.6z"/>
		<polygon id="XMLID_2370_" class="st2" points="879.8,92.1 875.7,92.1 875.7,86.1 870.4,86.1 870.4,92.1 866.3,92.1 866.3,76.9
			870.4,76.9 870.4,82.6 875.7,82.6 875.7,76.9 879.8,76.9 879.8,92.1 879.8,92.1 		"/>
		<polygon id="XMLID_2369_" class="st2" points="887.8,92.1 883.7,92.1 883.7,76.9 887.8,76.9 887.8,92.1 887.8,92.1 		"/>
		<path id="XMLID_2365_" class="st2" d="M891.7,76.9h8.3l0,0c2.8,0,4.5,0.8,4.5,3.9c0,1.8-0.2,3.2-2.4,3.5l0,0v0.1l0,0
			c2.1,0.2,2.6,1.3,2.6,3.3c0,3.4-1.1,4.4-4.7,4.4l0,0h-8.4V76.9L891.7,76.9L891.7,76.9z M898.4,83c1.1,0,2.1,0.1,2.1-1.3
			c0-1.1-0.3-1.4-1.4-1.4l0,0h-3.3V83H898.4L898.4,83L898.4,83z M898.5,88.8c1.3,0,2.2,0,2.2-1.5c0-1.4-0.7-1.5-1.9-1.5l0,0h-3v3
			H898.5L898.5,88.8L898.5,88.8z"/>
		<path id="XMLID_2362_" class="st2" d="M917.4,92.1h4.2l-4.6-15.2h-6.2l-4.6,15.2h4.2l0.9-3.1h5.2L917.4,92.1L917.4,92.1
			L917.4,92.1z M912.1,86.1l1.8-6.2l1.8,6.2H912.1L912.1,86.1L912.1,86.1z"/>
	</g>
	<g id="XMLID_2351_">
		<path id="XMLID_2358_" class="st2" d="M274.6,77.1c-1.4,0-5.4,0.1-8.1,0.5v13.3h4.2v-4.8c0.5,0.2,3.6,0.5,4.7,0.5
			c1.1,0,8.7-0.3,8.7-4.9C284.1,76.9,276,77.1,274.6,77.1L274.6,77.1z M274.8,84.3c-1.4,0-2.9-0.1-4.1-0.5v-4.1
			c1.4-0.1,3.7-0.2,4.3-0.2c0.7,0,4,0.1,4.1,2.3C279.2,84.1,276.2,84.3,274.8,84.3L274.8,84.3z"/>
		<path id="XMLID_2357_" class="st2" d="M201.8,83c-1.1-0.3-5.5-0.9-6.6-1.1c-1.5-0.2-2.3-0.4-2.3-1.3c0-1.1,2.2-0.9,4-0.9
			c2.2,0.1,6.3,1.5,7.5,2l1.4-3.1c-2.3-1.1-6.7-1.7-9.4-1.7c-2,0-8.7,0.5-8.8,4.1c-0.1,2.5,2.2,3.5,5,4.2c2.4,0.5,5.1,0.7,7,1.1
			c2.4,0.5,2.3,2.2,0.5,2.3c-3.2,0.2-8.7-1.4-11.2-2.6l-1.6,3.3c3.5,1.7,8.8,2.1,10.7,2.1c2.4,0,8.6-0.3,8.6-4
			C206.5,85,204.4,83.6,201.8,83L201.8,83z"/>
		<polygon id="XMLID_2356_" class="st2" points="220.6,82.8 211.9,82.8 211.9,77.7 207.4,77.7 207.4,90.9 211.9,90.9 211.9,85.5
			220.6,85.5 220.6,90.9 225.1,90.9 225.1,77.7 220.6,77.7 220.6,82.8 		"/>
		<path id="XMLID_2353_" class="st2" d="M239,77.7h-5.5l-7.8,13.3h3.5l1.8-3h8.8l1.8,3h5.4L239,77.7L239,77.7z M232.5,85.3l2.8-4.8
			l2.9,4.8H232.5L232.5,85.3z"/>
		<path id="XMLID_2352_" class="st2" d="M265.2,81.6c0-4.9-8.3-4.4-9.7-4.4c-1.4,0-5.4,0.1-8.1,0.5v13.3h4.3V79.7
			c1.5-0.1,3.7-0.2,4.4-0.2c0.7,0,4-0.1,4,2.3c0,2.3-3.1,2.3-4.5,2.3c-0.9,0-1.6-0.2-2.3-0.4l-0.8,1.4l6.6,5.9h6.4l-5.8-5.1
			C262.3,85.4,265.3,84.2,265.2,81.6L265.2,81.6z"/>
	</g>
	<g id="XMLID_476_">
		<polygon id="XMLID_470_" class="st3" points="717.9,83.4 717.9,73.2 713.7,73.2 701.1,91.4 706.2,91.4 713.6,80.7 713.6,89.6
			"/>
		<rect id="XMLID_469_" x="792.7" y="77.4" class="st3" width="4.2" height="14"/>
		<rect id="XMLID_468_" x="732" y="77.4" class="st3" width="4.2" height="14"/>
		<polygon id="XMLID_467_" class="st3" points="791.4,77.4 786.4,77.4 781.5,83.4 781.5,77.4 777.3,77.4 777.3,91.4 781.5,91.4
			781.5,84.1 781.5,83.8 786.4,91.4 791.4,91.4 786.4,83.6 		"/>
		<polygon id="XMLID_466_" class="st3" points="730.3,91.4 730.3,73.2 726.2,73.2 713.6,91.4 718.6,91.4 726,80.7 726,91.4 		"/>
		<path id="XMLID_465_" class="st3" d="M758.9,82.6c0-3-2.4-5.4-5.5-5.4c-1.6,0-3.1,0.7-4.1,1.8c-0.9-1.1-2.3-1.8-3.9-1.8
			c-1.3,0-2.5,0.5-3.4,1.3v-1h-4.2v14h4.2v-8.1c0-1.2,0.9-2.1,2.1-2.1c1.2,0,2.1,0.9,2.1,2.1v8.1h4.2v-8.1c0-1.2,0.9-2.1,2.1-2.1
			c1.2,0,2.1,0.9,2.1,2.1v8.1h4.2V82.6"/>
		<path id="XMLID_464_" class="st3" d="M771.4,91.4h4.2v-14h-4.2v1.2c-1.2-0.9-2.7-1.5-4.3-1.5c-3.9,0-7.1,3.2-7.1,7.1
			c0,3.9,3.2,7.1,7.1,7.1h3.2v-4.1h-3.1c-1.8,0-3.2-1.4-3.2-3.2c0-1.8,1.4-3.2,3.2-3.2h0.4c2.1,0,3.8,1.7,3.8,3.8V91.4"/>
	</g>
</g>
</svg>
